<mxfile host="app.diagrams.net" modified="2023-12-02T01:38:27.699Z" agent="Mozilla/5.0 (Windows NT 10.0; Win64; x64) AppleWebKit/537.36 (KHTML, like Gecko) Chrome/119.0.0.0 Safari/537.36" etag="fL6nduRM-2rZntrbpMKz" version="22.1.5" type="device">
  <diagram name="Page-1" id="xcgHY_qwHGxeMQX3MOIA">
    <mxGraphModel dx="2524" dy="772" grid="1" gridSize="10" guides="1" tooltips="1" connect="1" arrows="1" fold="1" page="1" pageScale="1" pageWidth="850" pageHeight="1100" math="0" shadow="0">
      <root>
        <mxCell id="0" />
        <mxCell id="1" parent="0" />
        <mxCell id="9ZHAh12ubHKS04gOAZc5-10" value="DATA GATHERING" style="swimlane;startSize=20;horizontal=1;containerType=tree;strokeColor=#A9C4EB;fillColor=#A680B8;" parent="1" vertex="1">
          <mxGeometry x="-290" y="20" width="160" height="340" as="geometry" />
        </mxCell>
        <mxCell id="9ZHAh12ubHKS04gOAZc5-26" value="" style="shape=image;verticalLabelPosition=bottom;labelBackgroundColor=#ffffff;verticalAlign=top;aspect=fixed;imageAspect=0;image=data:image/svg+xml,PHN2ZyB4bWxuczpjYz0iaHR0cDovL2NyZWF0aXZlY29tbW9ucy5vcmcvbnMjIiB4bWxuczpkYz0iaHR0cDovL3B1cmwub3JnL2RjL2VsZW1lbnRzLzEuMS8iIHhtbG5zOmlua3NjYXBlPSJodHRwOi8vd3d3Lmlua3NjYXBlLm9yZy9uYW1lc3BhY2VzL2lua3NjYXBlIiB4bWxuczpyZGY9Imh0dHA6Ly93d3cudzMub3JnLzE5OTkvMDIvMjItcmRmLXN5bnRheC1ucyMiIHhtbG5zOnNvZGlwb2RpPSJodHRwOi8vc29kaXBvZGkuc291cmNlZm9yZ2UubmV0L0RURC9zb2RpcG9kaS0wLmR0ZCIgeG1sbnM6c3ZnPSJodHRwOi8vd3d3LnczLm9yZy8yMDAwL3N2ZyIgeG1sbnM9Imh0dHA6Ly93d3cudzMub3JnLzIwMDAvc3ZnIiB4bWxuczp4bGluaz0iaHR0cDovL3d3dy53My5vcmcvMTk5OS94bGluayIgdmVyc2lvbj0iMS4xIiBpZD0ic3ZnNDY2NzAiIGlua3NjYXBlOnZlcnNpb249IjAuOTIuMyAoMjQwNTU0NiwgMjAxOC0wMy0xMSkiIHNvZGlwb2RpOmRvY25hbWU9ImRhdGFiYXNlX2FuZF90YWJsZS5zdmciIHg9IjBweCIgeT0iMHB4IiB2aWV3Qm94PSIwIDAgNDIuNzUgNDcuNjkiIHN0eWxlPSJlbmFibGUtYmFja2dyb3VuZDpuZXcgMCAwIDQyLjc1IDQ3LjY5OyIgeG1sOnNwYWNlPSJwcmVzZXJ2ZSI+JiN4YTs8c29kaXBvZGk6bmFtZWR2aWV3IGJvcmRlcmNvbG9yPSIjNjY2NjY2IiBib3JkZXJvcGFjaXR5PSIxIiBmaXQtbWFyZ2luLWJvdHRvbT0iMCIgZml0LW1hcmdpbi1sZWZ0PSIwIiBmaXQtbWFyZ2luLXJpZ2h0PSIwIiBmaXQtbWFyZ2luLXRvcD0iMCIgZ3JpZHRvbGVyYW5jZT0iMTAiIGd1aWRldG9sZXJhbmNlPSIxMCIgaWQ9Im5hbWVkdmlldzQ2NjcyIiBpbmtzY2FwZTpjdXJyZW50LWxheWVyPSJzdmc0NjY3MCIgaW5rc2NhcGU6Y3g9IjIyLjI4MTUzNCIgaW5rc2NhcGU6Y3k9IjE5Ljc5OTQwOSIgaW5rc2NhcGU6cGFnZW9wYWNpdHk9IjAiIGlua3NjYXBlOnBhZ2VzaGFkb3c9IjIiIGlua3NjYXBlOndpbmRvdy1oZWlnaHQ9IjEwMTciIGlua3NjYXBlOndpbmRvdy1tYXhpbWl6ZWQ9IjEiIGlua3NjYXBlOndpbmRvdy13aWR0aD0iMTkyMCIgaW5rc2NhcGU6d2luZG93LXg9Ii04IiBpbmtzY2FwZTp3aW5kb3cteT0iLTgiIGlua3NjYXBlOnpvb209IjYuNjA5MjQwNSIgb2JqZWN0dG9sZXJhbmNlPSIxMCIgcGFnZWNvbG9yPSIjZmZmZmZmIiBzaG93Z3JpZD0iZmFsc2UiPiYjeGE7CTwvc29kaXBvZGk6bmFtZWR2aWV3PiYjeGE7PGcgaWQ9Imc0NjY2OCIgdHJhbnNmb3JtPSJ0cmFuc2xhdGUoLTAuNzUsLTAuNzQ1KSI+JiN4YTsJPHRpdGxlIGlkPSJ0aXRsZTQ2NjE0Ij5QYWdlLTE8L3RpdGxlPiYjeGE7CTxnIGlkPSJncm91cDQ0MDEtMSIgdHJhbnNmb3JtPSJ0cmFuc2xhdGUoMS41LC0xLjUpIj4mI3hhOwkJPHRpdGxlIGlkPSJ0aXRsZTQ2NjE2Ij5EYXRhYmFzZSBhbmQgVGFibGU8L3RpdGxlPiYjeGE7CQk8ZyBpZD0ic2hhcGU0NDAyLTIiPiYjeGE7CQkJPHRpdGxlIGlkPSJ0aXRsZTQ2NjE4Ij5wYXRoNDI3MzwvdGl0bGU+JiN4YTsJCQk8cGF0aCBpZD0icGF0aDQ2NjIwIiBpbmtzY2FwZTpjb25uZWN0b3ItY3VydmF0dXJlPSIwIiBzdHlsZT0iZmlsbDojRkZGRkZGOyIgZD0iTTMxLjc5LDlMMjEuNDQsOS4wOUwwLDkuMjd2MzMuMzcgICAgIGMwLDMuNDIsNy41LDYuMzcsMTcuMjUsNi41NWgwLjM3YzEuMzIsMCwyLjYtMC4wNywzLjgyLTAuMTljMy41Ny0wLjIyLDcuMDgtMS4wNywxMC4zNS0yLjUzYzIuMTktMS4xLDMuNDYtMi40NCwzLjQ2LTMuODNWOC45NyAgICAgTDMxLjc5LDl6Ii8+JiN4YTsJCTwvZz4mI3hhOwkJPGcgaWQ9InNoYXBlNDQwMy00IiB0cmFuc2Zvcm09InRyYW5zbGF0ZSgyMS4xNSwtMC4yMSkiPiYjeGE7CQkJPHRpdGxlIGlkPSJ0aXRsZTQ2NjIzIj5wYXRoNDI3NTwvdGl0bGU+JiN4YTsJCQk8cGF0aCBpZD0icGF0aDQ2NjI1IiBpbmtzY2FwZTpjb25uZWN0b3ItY3VydmF0dXJlPSIwIiBzdHlsZT0iZmlsbDojRTVFNUU1OyIgZD0iTTEwLjM1LDkuMjF2MzcuNDUgICAgIEM3LjA4LDQ4LjEyLDMuNTcsNDguOTcsMCw0OS4xOVY5LjNMMTAuMzUsOS4yMXoiLz4mI3hhOwkJPC9nPiYjeGE7CQk8ZyBpZD0ic2hhcGU0NDA0LTYiPiYjeGE7CQkJPHRpdGxlIGlkPSJ0aXRsZTQ2NjI4Ij5wYXRoNDI3NzwvdGl0bGU+JiN4YTsJCQk8cGF0aCBpZD0icGF0aDQ2NjMwIiBpbmtzY2FwZTpjb25uZWN0b3ItY3VydmF0dXJlPSIwIiBzdHlsZT0iZmlsbDpub25lOyIgZD0iTTAsOS4yN3YzMy4zN2MwLDMuNDIsNy40Niw2LjM3LDE3LjI1LDYuNTVoMC4zNyAgICAgYzkuOTctMC4xMywxNy42My0zLjEsMTcuNjMtNi41NVY4Ljk3TDAsOS4yN3oiLz4mI3hhOwkJCSYjeGE7CQkJCTxwYXRoIGlkPSJwYXRoNDY2MzIiIGlua3NjYXBlOmNvbm5lY3Rvci1jdXJ2YXR1cmU9IjAiIHN0eWxlPSJmaWxsOm5vbmU7c3Ryb2tlOiM1NTZBOEE7c3Ryb2tlLXdpZHRoOjEuNTtzdHJva2UtbWl0ZXJsaW1pdDozOyIgZD0iICAgICBNMCw5LjI3djMzLjM3YzAsMy40Miw3LjQ2LDYuMzcsMTcuMjUsNi41NWgwLjM3YzkuOTctMC4xMywxNy42My0zLjEsMTcuNjMtNi41NVY4Ljk3Ii8+JiN4YTsJCTwvZz4mI3hhOwkJPGcgaWQ9InNoYXBlNDQwNS05IiB0cmFuc2Zvcm09InRyYW5zbGF0ZSgwLjA0NSwtMzMuNDY1KSI+JiN4YTsJCQk8dGl0bGUgaWQ9InRpdGxlNDY2MzUiPnBhdGg0Mjc5PC90aXRsZT4mI3hhOwkJCTxwYXRoIGlkPSJwYXRoNDY2MzciIGlua3NjYXBlOmNvbm5lY3Rvci1jdXJ2YXR1cmU9IjAiIHN0eWxlPSJmaWxsOiNCQUQ4MEE7IiBkPSJNMzUuMjUsNDIuODJjMCwzLjUyLTcuODksNi4zNy0xNy42Myw2LjM3ICAgICBDNy44OSw0OS4xOSwwLDQ2LjM0LDAsNDIuODJjMC0zLjUxLDguMTItNi4zNiwxNy44Ni02LjM2QzI3LjU5LDM2LjQ2LDM1LjI1LDM5LjMxLDM1LjI1LDQyLjgyTDM1LjI1LDQyLjgyeiIvPiYjeGE7CQkJJiN4YTsJCQkJPHBhdGggaWQ9InBhdGg0NjYzOSIgaW5rc2NhcGU6Y29ubmVjdG9yLWN1cnZhdHVyZT0iMCIgc3R5bGU9ImZpbGw6bm9uZTtzdHJva2U6IzU1NkE4QTtzdHJva2Utd2lkdGg6MS41O3N0cm9rZS1taXRlcmxpbWl0OjM7IiBkPSIgICAgIE0zNS4yNSw0Mi44MmMwLDMuNTItNy44OSw2LjM3LTE3LjYzLDYuMzdDNy44OSw0OS4xOSwwLDQ2LjM0LDAsNDIuODJjMC0zLjUxLDguMTItNi4zNiwxNy44Ni02LjM2ICAgICBDMjcuNTksMzYuNDYsMzUuMjUsMzkuMzEsMzUuMjUsNDIuODIiLz4mI3hhOwkJPC9nPiYjeGE7CQk8ZyBpZD0ic2hhcGU0NDA2LTEyIiB0cmFuc2Zvcm09InRyYW5zbGF0ZSgxNC4yNSwtOS41NDc1KSI+JiN4YTsJCQk8dGl0bGUgaWQ9InRpdGxlNDY2NDIiPnJlY3Q0MjgzPC90aXRsZT4mI3hhOwkJCSYjeGE7CQkJCTxyZWN0IGlkPSJyZWN0NDY2NDQiIHk9IjMxLjE5IiBzdHlsZT0iZmlsbDojRkZGRkZGO3N0cm9rZTojNTU2QThBO3N0cm9rZS13aWR0aDoxLjU7c3Ryb2tlLW1pdGVybGltaXQ6MzsiIHdpZHRoPSIyNyIgaGVpZ2h0PSIxOCIvPiYjeGE7CQk8L2c+JiN4YTsJCTxnIGlkPSJzaGFwZTQ0MDctMTQiIHRyYW5zZm9ybT0idHJhbnNsYXRlKDE0LjI1LC0yMS41NDc1KSI+JiN4YTsJCQk8dGl0bGUgaWQ9InRpdGxlNDY2NDciPmxpbmU0Mjg1PC90aXRsZT4mI3hhOwkJCSYjeGE7CQkJCTxwYXRoIGlkPSJwYXRoNDY2NDkiIGlua3NjYXBlOmNvbm5lY3Rvci1jdXJ2YXR1cmU9IjAiIHN0eWxlPSJmaWxsOm5vbmU7c3Ryb2tlOiM1NTZBOEE7c3Ryb2tlLXdpZHRoOjEuNTtzdHJva2UtbWl0ZXJsaW1pdDozOyIgZD0iICAgICBNMCw0OS4xOWgyNy43NSIvPiYjeGE7CQk8L2c+JiN4YTsJCTxnIGlkPSJzaGFwZTQ0MDgtMTciIHRyYW5zZm9ybT0idHJhbnNsYXRlKDE0LjI1LC0xNS41NDc1KSI+JiN4YTsJCQk8dGl0bGUgaWQ9InRpdGxlNDY2NTIiPmxpbmU0Mjg3PC90aXRsZT4mI3hhOwkJCSYjeGE7CQkJCTxwYXRoIGlkPSJwYXRoNDY2NTQiIGlua3NjYXBlOmNvbm5lY3Rvci1jdXJ2YXR1cmU9IjAiIHN0eWxlPSJmaWxsOm5vbmU7c3Ryb2tlOiM1NTZBOEE7c3Ryb2tlLXdpZHRoOjEuNTtzdHJva2UtbWl0ZXJsaW1pdDozOyIgZD0iICAgICBNMCw0OS4xOWgyNy43NSIvPiYjeGE7CQk8L2c+JiN4YTsJCTxnIGlkPSJzaGFwZTQ0MDktMjAiIHRyYW5zZm9ybT0icm90YXRlKDkwLDI1LjM5ODc1LDQ3LjA0Mzc1KSI+JiN4YTsJCQk8dGl0bGUgaWQ9InRpdGxlNDY2NTciPmxpbmU0Mjg5PC90aXRsZT4mI3hhOwkJCSYjeGE7CQkJCTxwYXRoIGlkPSJwYXRoNDY2NTkiIGlua3NjYXBlOmNvbm5lY3Rvci1jdXJ2YXR1cmU9IjAiIHN0eWxlPSJmaWxsOm5vbmU7c3Ryb2tlOiM1NTZBOEE7c3Ryb2tlLXdpZHRoOjEuNTtzdHJva2UtbWl0ZXJsaW1pdDozOyIgZD0iICAgICBNMCw0OS4xOWgxOCIvPiYjeGE7CQk8L2c+JiN4YTsJCTxnIGlkPSJzaGFwZTQ0MTAtMjMiIHRyYW5zZm9ybT0icm90YXRlKDkwLDI5Ljg5ODc1LDUxLjU0Mzc1KSI+JiN4YTsJCQk8dGl0bGUgaWQ9InRpdGxlNDY2NjIiPmxpbmU0MjkxPC90aXRsZT4mI3hhOwkJCSYjeGE7CQkJCTxwYXRoIGlkPSJwYXRoNDY2NjQiIGlua3NjYXBlOmNvbm5lY3Rvci1jdXJ2YXR1cmU9IjAiIHN0eWxlPSJmaWxsOm5vbmU7c3Ryb2tlOiM1NTZBOEE7c3Ryb2tlLXdpZHRoOjEuNTtzdHJva2UtbWl0ZXJsaW1pdDozOyIgZD0iICAgICBNMCw0OS4xOWgxOCIvPiYjeGE7CQk8L2c+JiN4YTsJPC9nPiYjeGE7PC9nPiYjeGE7PC9zdmc+;" parent="9ZHAh12ubHKS04gOAZc5-10" vertex="1">
          <mxGeometry x="48.65" y="70" width="62.71" height="70" as="geometry" />
        </mxCell>
        <mxCell id="9ZHAh12ubHKS04gOAZc5-67" value="" style="endArrow=classic;html=1;rounded=0;entryX=0;entryY=0.5;entryDx=0;entryDy=0;" parent="9ZHAh12ubHKS04gOAZc5-10" target="9ZHAh12ubHKS04gOAZc5-64" edge="1">
          <mxGeometry width="50" height="50" relative="1" as="geometry">
            <mxPoint x="89" y="120" as="sourcePoint" />
            <mxPoint x="199" y="60" as="targetPoint" />
            <Array as="points">
              <mxPoint x="89" y="60" />
            </Array>
          </mxGeometry>
        </mxCell>
        <mxCell id="9ZHAh12ubHKS04gOAZc5-15" value="Dataset for New York City&amp;nbsp;&lt;br&gt;&lt;br&gt;01. CRIME DATASET&lt;br&gt;02. SOCIO ECONOMIC FACTORS&lt;br&gt;03. POPULATION, LAND AREA AND GDP&lt;br&gt;04. POLICE STATION DISTRIBUTION&amp;nbsp;" style="whiteSpace=wrap;html=1;fillColor=#E5CCFF;" parent="1" vertex="1">
          <mxGeometry x="-280" y="186" width="140" height="150" as="geometry" />
        </mxCell>
        <mxCell id="9ZHAh12ubHKS04gOAZc5-20" value="DATA PRE-PROCESSING" style="swimlane;startSize=20;horizontal=1;containerType=tree;strokeColor=#A9C4EB;fillColor=#A680B8;" parent="1" vertex="1">
          <mxGeometry x="-110" y="20" width="180" height="339" as="geometry" />
        </mxCell>
        <mxCell id="9ZHAh12ubHKS04gOAZc5-25" value="" style="shape=image;verticalLabelPosition=bottom;labelBackgroundColor=#ffffff;verticalAlign=top;aspect=fixed;imageAspect=0;image=data:image/svg+xml,PHN2ZyB4bWxuczpjYz0iaHR0cDovL2NyZWF0aXZlY29tbW9ucy5vcmcvbnMjIiB4bWxuczpkYz0iaHR0cDovL3B1cmwub3JnL2RjL2VsZW1lbnRzLzEuMS8iIHhtbG5zOmlua3NjYXBlPSJodHRwOi8vd3d3Lmlua3NjYXBlLm9yZy9uYW1lc3BhY2VzL2lua3NjYXBlIiB4bWxuczpyZGY9Imh0dHA6Ly93d3cudzMub3JnLzE5OTkvMDIvMjItcmRmLXN5bnRheC1ucyMiIHhtbG5zOnNvZGlwb2RpPSJodHRwOi8vc29kaXBvZGkuc291cmNlZm9yZ2UubmV0L0RURC9zb2RpcG9kaS0wLmR0ZCIgeG1sbnM6c3ZnPSJodHRwOi8vd3d3LnczLm9yZy8yMDAwL3N2ZyIgeG1sbnM9Imh0dHA6Ly93d3cudzMub3JnLzIwMDAvc3ZnIiB4bWxuczp4bGluaz0iaHR0cDovL3d3dy53My5vcmcvMTk5OS94bGluayIgdmVyc2lvbj0iMS4xIiBpZD0ic3ZnNTY2NjIiIGlua3NjYXBlOnZlcnNpb249IjAuOTIuMyAoMjQwNTU0NiwgMjAxOC0wMy0xMSkiIHNvZGlwb2RpOmRvY25hbWU9ImZpbHRlcl8yLnN2ZyIgeD0iMHB4IiB5PSIwcHgiIHZpZXdCb3g9IjAgMCAzMS41IDI4LjQ1IiBzdHlsZT0iZW5hYmxlLWJhY2tncm91bmQ6bmV3IDAgMCAzMS41IDI4LjQ1OyIgeG1sOnNwYWNlPSJwcmVzZXJ2ZSI+JiN4YTs8c29kaXBvZGk6bmFtZWR2aWV3IGJvcmRlcmNvbG9yPSIjNjY2NjY2IiBib3JkZXJvcGFjaXR5PSIxIiBmaXQtbWFyZ2luLWJvdHRvbT0iMCIgZml0LW1hcmdpbi1sZWZ0PSIwIiBmaXQtbWFyZ2luLXJpZ2h0PSIwIiBmaXQtbWFyZ2luLXRvcD0iMCIgZ3JpZHRvbGVyYW5jZT0iMTAiIGd1aWRldG9sZXJhbmNlPSIxMCIgaWQ9Im5hbWVkdmlldzU2NjY0IiBpbmtzY2FwZTpjdXJyZW50LWxheWVyPSJzdmc1NjY2MiIgaW5rc2NhcGU6Y3g9IjUuMTMwMTAzMSIgaW5rc2NhcGU6Y3k9Ii0xOS44MTMwNTEiIGlua3NjYXBlOnBhZ2VvcGFjaXR5PSIwIiBpbmtzY2FwZTpwYWdlc2hhZG93PSIyIiBpbmtzY2FwZTp3aW5kb3ctaGVpZ2h0PSIxMDE3IiBpbmtzY2FwZTp3aW5kb3ctbWF4aW1pemVkPSIxIiBpbmtzY2FwZTp3aW5kb3ctd2lkdGg9IjE5MjAiIGlua3NjYXBlOndpbmRvdy14PSItOCIgaW5rc2NhcGU6d2luZG93LXk9Ii04IiBpbmtzY2FwZTp6b29tPSI0Ljg2MDkyNTYiIG9iamVjdHRvbGVyYW5jZT0iMTAiIHBhZ2Vjb2xvcj0iI2ZmZmZmZiIgc2hvd2dyaWQ9ImZhbHNlIj4mI3hhOwk8L3NvZGlwb2RpOm5hbWVkdmlldz4mI3hhOzxnIGlkPSJnNTY2NjAiIHRyYW5zZm9ybT0idHJhbnNsYXRlKC0yMC4yNSwtMC43NTE0KSI+JiN4YTsJPHRpdGxlIGlkPSJ0aXRsZTU2NjQ1Ij5QYWdlLTE8L3RpdGxlPiYjeGE7CTxnIGlkPSJncm91cDI5NzEtMSIgdHJhbnNmb3JtPSJ0cmFuc2xhdGUoMjEsLTM4LjQzODYpIj4mI3hhOwkJPHRpdGxlIGlkPSJ0aXRsZTU2NjQ3Ij5GaWx0ZXIgIzI8L3RpdGxlPiYjeGE7CQk8ZyBpZD0ic2hhcGUyOTcyLTIiPiYjeGE7CQkJPHRpdGxlIGlkPSJ0aXRsZTU2NjQ5Ij5TaGVldC4yOTcyPC90aXRsZT4mI3hhOwkJCSYjeGE7CQkJCTxwYXRoIGlkPSJwYXRoNTY2NTEiIGlua3NjYXBlOmNvbm5lY3Rvci1jdXJ2YXR1cmU9IjAiIHN0eWxlPSJmaWxsOiMzRjU3NjU7c3Ryb2tlOiNGRkZGRkY7c3Ryb2tlLXdpZHRoOjEuNTtzdHJva2UtbWl0ZXJsaW1pdDozOyIgZD0iICAgICBNMCwzOS45NGgzMHYxLjVsLTEyLDEybC0xLjUsMTMuNDVoLTNMMTIsNTMuNDRsLTEyLTEyVjM5Ljk0eiIvPiYjeGE7CQk8L2c+JiN4YTsJCTxnIGlkPSJzaGFwZTI5NzMtNCI+JiN4YTsJCQk8dGl0bGUgaWQ9InRpdGxlNTY2NTQiPlNoZWV0LjI5NzM8L3RpdGxlPiYjeGE7CQkJPHBhdGggaWQ9InBhdGg1NjY1NiIgaW5rc2NhcGU6Y29ubmVjdG9yLWN1cnZhdHVyZT0iMCIgc3R5bGU9ImZpbGw6IzNGNTc2NTsiIGQ9Ik0wLDM5Ljk0aDMwdjEuNWwtMTIsMTJsLTEuNSwxMy40NWgtM0wxMiw1My40NCAgICAgbC0xMi0xMlYzOS45NHoiLz4mI3hhOwkJPC9nPiYjeGE7CTwvZz4mI3hhOzwvZz4mI3hhOzwvc3ZnPg==;" parent="9ZHAh12ubHKS04gOAZc5-20" vertex="1">
          <mxGeometry x="60.25" y="110" width="45.71" height="40" as="geometry" />
        </mxCell>
        <mxCell id="9ZHAh12ubHKS04gOAZc5-64" value="" style="shape=image;verticalLabelPosition=bottom;labelBackgroundColor=#ffffff;verticalAlign=top;aspect=fixed;imageAspect=0;image=data:image/svg+xml,PHN2ZyB4bWxuczpjYz0iaHR0cDovL2NyZWF0aXZlY29tbW9ucy5vcmcvbnMjIiB4bWxuczpkYz0iaHR0cDovL3B1cmwub3JnL2RjL2VsZW1lbnRzLzEuMS8iIHhtbG5zOmlua3NjYXBlPSJodHRwOi8vd3d3Lmlua3NjYXBlLm9yZy9uYW1lc3BhY2VzL2lua3NjYXBlIiB4bWxuczpyZGY9Imh0dHA6Ly93d3cudzMub3JnLzE5OTkvMDIvMjItcmRmLXN5bnRheC1ucyMiIHhtbG5zOnNvZGlwb2RpPSJodHRwOi8vc29kaXBvZGkuc291cmNlZm9yZ2UubmV0L0RURC9zb2RpcG9kaS0wLmR0ZCIgeG1sbnM6c3ZnPSJodHRwOi8vd3d3LnczLm9yZy8yMDAwL3N2ZyIgeG1sbnM9Imh0dHA6Ly93d3cudzMub3JnLzIwMDAvc3ZnIiB4bWxuczp4bGluaz0iaHR0cDovL3d3dy53My5vcmcvMTk5OS94bGluayIgdmVyc2lvbj0iMS4xIiBpZD0ic3ZnOTYxNjAiIGlua3NjYXBlOnZlcnNpb249IjAuOTIuMyAoMjQwNTU0NiwgMjAxOC0wMy0xMSkiIHNvZGlwb2RpOmRvY25hbWU9ImFuYWx5c2lzX3NlcnZpY2VzXzEuc3ZnIiB4PSIwcHgiIHk9IjBweCIgdmlld0JveD0iMCAwIDk4Ljg0IDc5Ljk1IiBzdHlsZT0iZW5hYmxlLWJhY2tncm91bmQ6bmV3IDAgMCA5OC44NCA3OS45NTsiIHhtbDpzcGFjZT0icHJlc2VydmUiPiYjeGE7PHNvZGlwb2RpOm5hbWVkdmlldyBib3JkZXJjb2xvcj0iIzY2NjY2NiIgYm9yZGVyb3BhY2l0eT0iMSIgZml0LW1hcmdpbi1ib3R0b209IjAiIGZpdC1tYXJnaW4tbGVmdD0iMCIgZml0LW1hcmdpbi1yaWdodD0iMCIgZml0LW1hcmdpbi10b3A9IjAiIGdyaWR0b2xlcmFuY2U9IjEwIiBndWlkZXRvbGVyYW5jZT0iMTAiIGlkPSJuYW1lZHZpZXc5NjE2MiIgaW5rc2NhcGU6Y3VycmVudC1sYXllcj0ic3ZnOTYxNjAiIGlua3NjYXBlOmN4PSI2NS44OTUzNTYiIGlua3NjYXBlOmN5PSI1My4yOTc3NTUiIGlua3NjYXBlOnBhZ2VvcGFjaXR5PSIwIiBpbmtzY2FwZTpwYWdlc2hhZG93PSIyIiBpbmtzY2FwZTp3aW5kb3ctaGVpZ2h0PSIxMDE3IiBpbmtzY2FwZTp3aW5kb3ctbWF4aW1pemVkPSIxIiBpbmtzY2FwZTp3aW5kb3ctd2lkdGg9IjE5MjAiIGlua3NjYXBlOndpbmRvdy14PSItOCIgaW5rc2NhcGU6d2luZG93LXk9Ii04IiBpbmtzY2FwZTp6b29tPSI2LjYzODgxODciIG9iamVjdHRvbGVyYW5jZT0iMTAiIHBhZ2Vjb2xvcj0iI2ZmZmZmZiIgc2hvd2dyaWQ9ImZhbHNlIj4mI3hhOwk8L3NvZGlwb2RpOm5hbWVkdmlldz4mI3hhOzxnIGlkPSJnOTYxNTgiIHRyYW5zZm9ybT0idHJhbnNsYXRlKC05LC05LjAwMDEwNDYpIj4mI3hhOwk8dGl0bGUgaWQ9InRpdGxlOTYwODkiPlBhZ2UtMTwvdGl0bGU+JiN4YTsJPGcgaWQ9Imdyb3VwMzg4Mi0xIiB0cmFuc2Zvcm09InRyYW5zbGF0ZSg5LC05KSI+JiN4YTsJCTx0aXRsZSBpZD0idGl0bGU5NjA5MSI+QW5hbHlzaXMgU2VydmljZXMgIzE8L3RpdGxlPiYjeGE7CQk8ZyBpZD0iZ3JvdXAzODgzLTIiIHRyYW5zZm9ybT0idHJhbnNsYXRlKDAsLTQ3Ljk2NzkpIj4mI3hhOwkJCTx0aXRsZSBpZD0idGl0bGU5NjA5MyI+U2hlZXQuMzg4MzwvdGl0bGU+JiN4YTsJCQk8ZyBpZD0ic2hhcGUzODg0LTMiPiYjeGE7CQkJCTx0aXRsZSBpZD0idGl0bGU5NjA5NSI+U2hlZXQuMzg4NDwvdGl0bGU+JiN4YTsJCQkJPHJlY3QgaWQ9InJlY3Q5NjA5NyIgeT0iNjUuOTciIHN0eWxlPSJmaWxsOiMzOTk5QzY7IiB3aWR0aD0iNDAuNyIgaGVpZ2h0PSIzMS45OCIvPiYjeGE7CQkJPC9nPiYjeGE7CQkJPGcgaWQ9InNoYXBlMzg4NS01IiB0cmFuc2Zvcm09InRyYW5zbGF0ZSgyLjkwNzE0LC0yLjkwNzE0KSI+JiN4YTsJCQkJPHRpdGxlIGlkPSJ0aXRsZTk2MTAwIj5TaGVldC4zODg1PC90aXRsZT4mI3hhOwkJCQk8cmVjdCBpZD0icmVjdDk2MTAyIiB4PSIwIiB5PSI3NC42OSIgc3R5bGU9ImZpbGw6I0ZGRkZGRjsiIHdpZHRoPSIzNC44OSIgaGVpZ2h0PSIyMy4yNiIvPiYjeGE7CQkJPC9nPiYjeGE7CQk8L2c+JiN4YTsJCTxnIGlkPSJncm91cDM4ODYtNyIgdHJhbnNmb3JtPSJ0cmFuc2xhdGUoOC43MjE0MykiPiYjeGE7CQkJPHRpdGxlIGlkPSJ0aXRsZTk2MTA2Ij5TaGVldC4zODg2PC90aXRsZT4mI3hhOwkJCTxnIGlkPSJzaGFwZTM4ODctOCI+JiN4YTsJCQkJPHRpdGxlIGlkPSJ0aXRsZTk2MTA4Ij5TaGVldC4zODg3PC90aXRsZT4mI3hhOwkJCQk8cmVjdCBpZD0icmVjdDk2MTEwIiB4PSIwIiB5PSI2NS45NyIgc3R5bGU9ImZpbGw6IzM5OTlDNjsiIHdpZHRoPSI0MC43IiBoZWlnaHQ9IjMxLjk4Ii8+JiN4YTsJCQk8L2c+JiN4YTsJCQk8ZyBpZD0ic2hhcGUzODg4LTEwIiB0cmFuc2Zvcm09InRyYW5zbGF0ZSgyLjkwNzE0LC0yLjkwNzE0KSI+JiN4YTsJCQkJPHRpdGxlIGlkPSJ0aXRsZTk2MTEzIj5TaGVldC4zODg4PC90aXRsZT4mI3hhOwkJCQk8cmVjdCBpZD0icmVjdDk2MTE1IiB4PSIwIiB5PSI3NC42OSIgc3R5bGU9ImZpbGw6I0ZGRkZGRjsiIHdpZHRoPSIzNC44OSIgaGVpZ2h0PSIyMy4yNiIvPiYjeGE7CQkJPC9nPiYjeGE7CQk8L2c+JiN4YTsJCTxnIGlkPSJncm91cDM4ODktMTIiIHRyYW5zZm9ybT0idHJhbnNsYXRlKDU4LjE0MjksLTI5LjA3MTQpIj4mI3hhOwkJCTx0aXRsZSBpZD0idGl0bGU5NjExOSI+U2hlZXQuMzg4OTwvdGl0bGU+JiN4YTsJCQk8ZyBpZD0ic2hhcGUzODkwLTEzIj4mI3hhOwkJCQk8dGl0bGUgaWQ9InRpdGxlOTYxMjEiPlNoZWV0LjM4OTA8L3RpdGxlPiYjeGE7CQkJCTxyZWN0IGlkPSJyZWN0OTYxMjMiIHg9IjAiIHk9IjY1Ljk3IiBzdHlsZT0iZmlsbDojMzk5OUM2OyIgd2lkdGg9IjQwLjciIGhlaWdodD0iMzEuOTgiLz4mI3hhOwkJCTwvZz4mI3hhOwkJCTxnIGlkPSJzaGFwZTM4OTEtMTUiIHRyYW5zZm9ybT0idHJhbnNsYXRlKDIuOTA3MTQsLTIuOTA3MTQpIj4mI3hhOwkJCQk8dGl0bGUgaWQ9InRpdGxlOTYxMjYiPlNoZWV0LjM4OTE8L3RpdGxlPiYjeGE7CQkJCTxyZWN0IGlkPSJyZWN0OTYxMjgiIHg9IjAiIHk9Ijc0LjY5IiBzdHlsZT0iZmlsbDojRkZGRkZGOyIgd2lkdGg9IjM0Ljg5IiBoZWlnaHQ9IjIzLjI2Ii8+JiN4YTsJCQk8L2c+JiN4YTsJCTwvZz4mI3hhOwkJPGcgaWQ9InNoYXBlMzg5Mi0xNyIgdHJhbnNmb3JtPSJ0cmFuc2xhdGUoMjAuMzUsLTE0LjI0NSkiPiYjeGE7CQkJPHRpdGxlIGlkPSJ0aXRsZTk2MTMyIj5TaGVldC4zODkyPC90aXRsZT4mI3hhOwkJCSYjeGE7CQkJCTxwYXRoIGlkPSJwYXRoOTYxMzQiIGlua3NjYXBlOmNvbm5lY3Rvci1jdXJ2YXR1cmU9IjAiIHN0eWxlPSJmaWxsOm5vbmU7c3Ryb2tlOiNGRkZGRkY7c3Ryb2tlLXdpZHRoOjQuNTtzdHJva2UtbWl0ZXJsaW1pdDozOyIgZD0iICAgICBNOS4xNiw5Ny45NUwwLDQ5LjY5bDU4LjE0LDE4Ljg5TDkuMTYsOTcuOTV6Ii8+JiN4YTsJCTwvZz4mI3hhOwkJPGcgaWQ9InNoYXBlMzg5My0xOSIgdHJhbnNmb3JtPSJ0cmFuc2xhdGUoMjAuMzUsLTE0LjI0NSkiPiYjeGE7CQkJPHRpdGxlIGlkPSJ0aXRsZTk2MTM3Ij5TaGVldC4zODkzPC90aXRsZT4mI3hhOwkJCSYjeGE7CQkJCTxwYXRoIGlkPSJwYXRoOTYxMzkiIGlua3NjYXBlOmNvbm5lY3Rvci1jdXJ2YXR1cmU9IjAiIHN0eWxlPSJmaWxsOm5vbmU7c3Ryb2tlOiMzOTk5QzY7c3Ryb2tlLXdpZHRoOjM7c3Ryb2tlLW1pdGVybGltaXQ6MzsiIGQ9IiAgICAgTTkuMTYsOTcuOTVMMCw0OS42OWw1OC4xNCwxOC44OUw5LjE2LDk3Ljk1eiIvPiYjeGE7CQk8L2c+JiN4YTsJCTxnIGlkPSJzaGFwZTM4OTQtMjEiIHRyYW5zZm9ybT0idHJhbnNsYXRlKDE2LjQyNTQsLTU4LjE0MjkpIj4mI3hhOwkJCTx0aXRsZSBpZD0idGl0bGU5NjE0MiI+U2hlZXQuMzg5NDwvdGl0bGU+JiN4YTsJCQk8Y2lyY2xlIGlkPSJlbGxpcHNlOTYxNDQiIHN0eWxlPSJmaWxsOiMzOTk5QzY7IiBjeD0iNC4zNiIgY3k9IjkzLjU5IiByPSI0LjM2Ii8+JiN4YTsJCTwvZz4mI3hhOwkJPGcgaWQ9InNoYXBlMzg5NS0yMyIgdHJhbnNmb3JtPSJ0cmFuc2xhdGUoMjUuMTQ2OCwtMTAuMTc1KSI+JiN4YTsJCQk8dGl0bGUgaWQ9InRpdGxlOTYxNDciPlNoZWV0LjM4OTU8L3RpdGxlPiYjeGE7CQkJPGNpcmNsZSBpZD0iZWxsaXBzZTk2MTQ5IiBzdHlsZT0iZmlsbDojMzk5OUM2OyIgY3g9IjQuMzYiIGN5PSI5My41OSIgcj0iNC4zNiIvPiYjeGE7CQk8L2c+JiN4YTsJCTxnIGlkPSJzaGFwZTM4OTYtMjUiIHRyYW5zZm9ybT0idHJhbnNsYXRlKDc0LjU2ODIsLTM5LjI0NjQpIj4mI3hhOwkJCTx0aXRsZSBpZD0idGl0bGU5NjE1MiI+U2hlZXQuMzg5NjwvdGl0bGU+JiN4YTsJCQk8Y2lyY2xlIGlkPSJlbGxpcHNlOTYxNTQiIHN0eWxlPSJmaWxsOiMzOTk5QzY7IiBjeD0iNC4zNiIgY3k9IjkzLjU5IiByPSI0LjM2Ii8+JiN4YTsJCTwvZz4mI3hhOwk8L2c+JiN4YTs8L2c+JiN4YTs8L3N2Zz4=;" parent="9ZHAh12ubHKS04gOAZc5-20" vertex="1">
          <mxGeometry x="56.46" y="40" width="49.5" height="40" as="geometry" />
        </mxCell>
        <mxCell id="9ZHAh12ubHKS04gOAZc5-66" value="CLASSIFICATION&lt;br&gt;&amp;nbsp;OF DATA" style="text;html=1;align=center;verticalAlign=middle;resizable=0;points=[];autosize=1;strokeColor=none;fillColor=none;" parent="9ZHAh12ubHKS04gOAZc5-20" vertex="1">
          <mxGeometry x="90" y="20" width="120" height="40" as="geometry" />
        </mxCell>
        <mxCell id="9ZHAh12ubHKS04gOAZc5-70" value="" style="endArrow=classic;html=1;rounded=0;exitX=0.5;exitY=1;exitDx=0;exitDy=0;" parent="9ZHAh12ubHKS04gOAZc5-20" source="9ZHAh12ubHKS04gOAZc5-64" edge="1">
          <mxGeometry width="50" height="50" relative="1" as="geometry">
            <mxPoint x="40" y="160" as="sourcePoint" />
            <mxPoint x="80" y="110" as="targetPoint" />
          </mxGeometry>
        </mxCell>
        <mxCell id="9ZHAh12ubHKS04gOAZc5-22" value="&lt;div&gt;01. ASSIGNING TO THE RIGHT DATA TYPE&lt;/div&gt;&lt;div&gt;02. REMOVING UNWANTED COLUMNS&lt;/div&gt;&lt;div&gt;03. REMOVING DUPLICATES&lt;/div&gt;&lt;div&gt;04. REMOVING NULL AND JUNK&lt;/div&gt;&lt;div&gt;&lt;br&gt;&lt;/div&gt;" style="whiteSpace=wrap;html=1;fillColor=#E5CCFF;" parent="9ZHAh12ubHKS04gOAZc5-20" vertex="1">
          <mxGeometry x="13.11" y="173" width="140" height="150" as="geometry" />
        </mxCell>
        <mxCell id="9ZHAh12ubHKS04gOAZc5-73" style="edgeStyle=orthogonalEdgeStyle;rounded=0;orthogonalLoop=1;jettySize=auto;html=1;exitX=0.5;exitY=1;exitDx=0;exitDy=0;entryX=0.5;entryY=0;entryDx=0;entryDy=0;" parent="9ZHAh12ubHKS04gOAZc5-20" source="9ZHAh12ubHKS04gOAZc5-25" target="9ZHAh12ubHKS04gOAZc5-22" edge="1">
          <mxGeometry relative="1" as="geometry" />
        </mxCell>
        <mxCell id="9ZHAh12ubHKS04gOAZc5-76" value="" style="endArrow=classic;html=1;rounded=0;" parent="9ZHAh12ubHKS04gOAZc5-20" edge="1">
          <mxGeometry width="50" height="50" relative="1" as="geometry">
            <mxPoint x="153" y="260" as="sourcePoint" />
            <mxPoint x="220" y="223.75" as="targetPoint" />
            <Array as="points">
              <mxPoint x="220" y="259.75" />
            </Array>
          </mxGeometry>
        </mxCell>
        <mxCell id="9ZHAh12ubHKS04gOAZc5-40" value="NORMALIZATION&lt;br&gt;STANDARDIZATION" style="text;html=1;align=center;verticalAlign=middle;resizable=0;points=[];autosize=1;strokeColor=none;fillColor=none;" parent="9ZHAh12ubHKS04gOAZc5-20" vertex="1">
          <mxGeometry x="155" y="183" width="140" height="40" as="geometry" />
        </mxCell>
        <mxCell id="9ZHAh12ubHKS04gOAZc5-84" style="edgeStyle=orthogonalEdgeStyle;rounded=0;orthogonalLoop=1;jettySize=auto;html=1;exitX=1;exitY=0.75;exitDx=0;exitDy=0;" parent="1" source="9ZHAh12ubHKS04gOAZc5-31" edge="1">
          <mxGeometry relative="1" as="geometry">
            <mxPoint x="350" y="80" as="targetPoint" />
          </mxGeometry>
        </mxCell>
        <mxCell id="9ZHAh12ubHKS04gOAZc5-31" value="DATA TRANSFORMATION" style="swimlane;startSize=20;horizontal=1;containerType=tree;strokeColor=#A9C4EB;fillColor=#A680B8;" parent="1" vertex="1">
          <mxGeometry x="180" y="10.629999999999999" width="160" height="345" as="geometry" />
        </mxCell>
        <mxCell id="9ZHAh12ubHKS04gOAZc5-38" value="" style="shape=image;verticalLabelPosition=bottom;labelBackgroundColor=#ffffff;verticalAlign=top;aspect=fixed;imageAspect=0;image=data:image/svg+xml,PHN2ZyB4bWxuczpjYz0iaHR0cDovL2NyZWF0aXZlY29tbW9ucy5vcmcvbnMjIiB4bWxuczpkYz0iaHR0cDovL3B1cmwub3JnL2RjL2VsZW1lbnRzLzEuMS8iIHhtbG5zOmlua3NjYXBlPSJodHRwOi8vd3d3Lmlua3NjYXBlLm9yZy9uYW1lc3BhY2VzL2lua3NjYXBlIiB4bWxuczpyZGY9Imh0dHA6Ly93d3cudzMub3JnLzE5OTkvMDIvMjItcmRmLXN5bnRheC1ucyMiIHhtbG5zOnNvZGlwb2RpPSJodHRwOi8vc29kaXBvZGkuc291cmNlZm9yZ2UubmV0L0RURC9zb2RpcG9kaS0wLmR0ZCIgeG1sbnM6c3ZnPSJodHRwOi8vd3d3LnczLm9yZy8yMDAwL3N2ZyIgeG1sbnM9Imh0dHA6Ly93d3cudzMub3JnLzIwMDAvc3ZnIiB4bWxuczp4bGluaz0iaHR0cDovL3d3dy53My5vcmcvMTk5OS94bGluayIgdmVyc2lvbj0iMS4xIiBpZD0ic3ZnOTAxOTEiIGlua3NjYXBlOnZlcnNpb249IjAuOTIuMyAoMjQwNTU0NiwgMjAxOC0wMy0xMSkiIHNvZGlwb2RpOmRvY25hbWU9InNlcnZpY2VzLnN2ZyIgeD0iMHB4IiB5PSIwcHgiIHZpZXdCb3g9IjAgMCA1Ni4yNiA0NS42OCIgc3R5bGU9ImVuYWJsZS1iYWNrZ3JvdW5kOm5ldyAwIDAgNTYuMjYgNDUuNjg7IiB4bWw6c3BhY2U9InByZXNlcnZlIj4mI3hhOzxzb2RpcG9kaTpuYW1lZHZpZXcgYm9yZGVyY29sb3I9IiM2NjY2NjYiIGJvcmRlcm9wYWNpdHk9IjEiIGZpdC1tYXJnaW4tYm90dG9tPSIwIiBmaXQtbWFyZ2luLWxlZnQ9IjAiIGZpdC1tYXJnaW4tcmlnaHQ9IjAiIGZpdC1tYXJnaW4tdG9wPSIwIiBncmlkdG9sZXJhbmNlPSIxMCIgZ3VpZGV0b2xlcmFuY2U9IjEwIiBpZD0ibmFtZWR2aWV3OTAxOTMiIGlua3NjYXBlOmN1cnJlbnQtbGF5ZXI9InN2ZzkwMTkxIiBpbmtzY2FwZTpjeD0iMzIuNzA3NDM1IiBpbmtzY2FwZTpjeT0iMTIuNzc0NzU4IiBpbmtzY2FwZTpwYWdlb3BhY2l0eT0iMCIgaW5rc2NhcGU6cGFnZXNoYWRvdz0iMiIgaW5rc2NhcGU6d2luZG93LWhlaWdodD0iMTAxNyIgaW5rc2NhcGU6d2luZG93LW1heGltaXplZD0iMSIgaW5rc2NhcGU6d2luZG93LXdpZHRoPSIxOTIwIiBpbmtzY2FwZTp3aW5kb3cteD0iLTgiIGlua3NjYXBlOndpbmRvdy15PSItOCIgaW5rc2NhcGU6em9vbT0iNi44OTEyMjIyIiBvYmplY3R0b2xlcmFuY2U9IjEwIiBwYWdlY29sb3I9IiNmZmZmZmYiIHNob3dncmlkPSJmYWxzZSI+JiN4YTsJPC9zb2RpcG9kaTpuYW1lZHZpZXc+JiN4YTs8ZyBpZD0iZzkwMTg5IiB0cmFuc2Zvcm09InRyYW5zbGF0ZSgtMC43NSwtMC43NTI0KSI+JiN4YTsJPHRpdGxlIGlkPSJ0aXRsZTkwMTY5Ij5QYWdlLTE8L3RpdGxlPiYjeGE7CTxnIGlkPSJncm91cDQzNzUtMSIgdHJhbnNmb3JtPSJ0cmFuc2xhdGUoMC43NSwtMC43NSkiPiYjeGE7CQk8dGl0bGUgaWQ9InRpdGxlOTAxNzEiPlNlcnZpY2VzPC90aXRsZT4mI3hhOwkJPGcgaWQ9InNoYXBlNDM3Ni0yIj4mI3hhOwkJCTx0aXRsZSBpZD0idGl0bGU5MDE3MyI+U2hlZXQuNDM3NjwvdGl0bGU+JiN4YTsJCQk8cGF0aCBpZD0icGF0aDkwMTc1IiBpbmtzY2FwZTpjb25uZWN0b3ItY3VydmF0dXJlPSIwIiBzdHlsZT0iZmlsbDojM0Y1NzY1OyIgZD0iTTQxLjEyLDI1LjY2Yy0wLjctMy43OS0wLjctMy43OS0wLjctMy43OSAgICAgYy0wLjE0LTAuNDItMC40Mi0wLjctMC45OS0wLjg0Yy01Ljc3LTAuMjgtNS43Ny0wLjI4LTUuNzctMC4yOGMtMC4yOC0wLjQyLTAuNTYtMC45OS0wLjg1LTEuNGMyLjY4LTUuMiwyLjY4LTUuMiwyLjY4LTUuMiAgICAgYzAuMjktMC40MSwwLjE1LTAuOTgtMC4yOC0xLjI2Yy0yLjk1LTIuMzgtMi45NS0yLjM4LTIuOTUtMi4zOGMtMC4yOS0wLjQyLTAuODUtMC40Mi0xLjI4LTAuMTRjLTQuNjQsMy42NC00LjY0LDMuNjQtNC42NCwzLjY0ICAgICBjLTAuNDMtMC4yNy0wLjg0LTAuNDEtMS40MS0wLjU2Yy0xLjQxLTYuNTktMS40MS02LjU5LTEuNDEtNi41OWMtMC4xNC0wLjQyLTAuNTYtMC44NS0wLjk5LTAuODVjLTMuOTMsMC0zLjkzLDAtMy45MywwICAgICBjLTAuNDMsMC0wLjg1LDAuNDMtMC45OSwwLjg1Yy0xLjQxLDYuNTktMS40MSw2LjU5LTEuNDEsNi41OWMtMC41NywwLjE1LTAuOTgsMC4yOS0xLjQxLDAuNTZjLTQuNjQtMy42NC00LjY0LTMuNjQtNC42NC0zLjY0ICAgICBjLTAuNDMtMC4yOC0wLjk5LTAuMjgtMS4yOCwwYy0yLjk1LDIuNTItMi45NSwyLjUyLTIuOTUsMi41MmMtMC40MywwLjI4LTAuNDMsMC44NS0wLjI4LDEuMjZjMi42Nyw1LjIsMi42Nyw1LjIsMi42Nyw1LjIgICAgIGMtMC4yOCwwLjQxLTAuNTYsMC45OC0wLjg0LDEuNGMtNS43OCwwLjI4LTUuNzgsMC4yOC01Ljc4LDAuMjhjLTAuNTYsMC0wLjg0LDAuNDItMC45OCwwLjg0QzAsMjUuNjYsMCwyNS42NiwwLDI1LjY2ICAgICBjMCwwLjQyLDAuMTQsMC45OCwwLjU3LDEuMTJjNS40OSwyLjI1LDUuNDksMi4yNSw1LjQ5LDIuMjVjMC4xNCwwLjU2LDAuMTQsMS4xMiwwLjI4LDEuNjhjLTQuMzcsMy45My00LjM3LDMuOTMtNC4zNywzLjkzICAgICBjLTAuMjgsMC4yOC0wLjQyLDAuODQtMC4xNCwxLjI2YzEuOTcsMy4zNywxLjk3LDMuMzcsMS45NywzLjM3YzAuMTUsMC4yOCwwLjcxLDAuNTYsMS4xMywwLjQyYzUuNjMtMS44Miw1LjYzLTEuODIsNS42My0xLjgyICAgICBjMC40MywwLjQyLDAuODUsMC44NCwxLjI4LDEuMTJjLTAuNzEsNS43NS0wLjcxLDUuNzUtMC43MSw1Ljc1Yy0wLjE0LDAuNTYsMC4xNCwwLjk5LDAuNTYsMS4xM2MzLjY3LDEuMjYsMy42NywxLjI2LDMuNjcsMS4yNiAgICAgYzAuNDEsMC4xMywwLjk4LDAsMS4yNi0wLjI4YzMuMS01LjA2LDMuMS01LjA2LDMuMS01LjA2YzAuMjgsMCwwLjU3LDAuMTUsMC44NCwwLjE1YzAuMjgsMCwwLjU3LTAuMTUsMC44NS0wLjE1ICAgICBjMy4xLDUuMDYsMy4xLDUuMDYsMy4xLDUuMDZjMC4yOCwwLjI4LDAuODQsMC40MSwxLjI2LDAuMjhjMy42Ni0xLjI2LDMuNjYtMS4yNiwzLjY2LTEuMjZjMC40My0wLjE0LDAuNzEtMC41NywwLjU3LTEuMTMgICAgIGMtMC43MS01Ljc1LTAuNzEtNS43NS0wLjcxLTUuNzVjMC40My0wLjQyLDAuODUtMC43LDEuMjgtMS4xMmM1LjYyLDEuODIsNS42MiwxLjgyLDUuNjIsMS44MmMwLjQzLDAuMTQsMC45OS0wLjE0LDEuMTQtMC40MiAgICAgYzEuOTctMy4zNywxLjk3LTMuMzcsMS45Ny0zLjM3YzAuMjctMC40MiwwLjEzLTAuOTgtMC4xNC0xLjI2Yy00LjM3LTMuOTMtNC4zNy0zLjkzLTQuMzctMy45M2MwLjE0LTAuNTYsMC4xNC0xLjEyLDAuMjgtMS42OCAgICAgYzUuNDktMi4yNSw1LjQ5LTIuMjUsNS40OS0yLjI1QzQwLjk5LDI2LjY0LDQxLjEyLDI2LjIyLDQxLjEyLDI1LjY2eiBNMjguNzMsMjcuMzVjMCwyLjI0LTAuOTksNC4yLTIuMzksNS43NSAgICAgYy0xLjU1LDEuNC0zLjUyLDIuMzgtNS43OCwyLjM4Yy0yLjI1LDAtNC4yMi0wLjk4LTUuNzctMi4zOGMtMS40MS0xLjU1LTIuNC0zLjUxLTIuNC01Ljc1YzAtMi4yNSwwLjk5LTQuMzUsMi40LTUuNzYgICAgIGMxLjU1LTEuNTQsMy41Mi0yLjM4LDUuNzctMi4zOGMyLjI2LDAsNC4yMywwLjg0LDUuNzgsMi4zOEMyNy43NCwyMywyOC43MywyNS4xLDI4LjczLDI3LjM1eiIvPiYjeGE7CQk8L2c+JiN4YTsJCTxnIGlkPSJzaGFwZTQzNzctNCIgdHJhbnNmb3JtPSJ0cmFuc2xhdGUoMTYuNzU3NSwtMTYuMDI0OCkiPiYjeGE7CQkJPHRpdGxlIGlkPSJ0aXRsZTkwMTc4Ij5TaGVldC40Mzc3PC90aXRsZT4mI3hhOwkJCTxwYXRoIGlkPSJwYXRoOTAxODAiIGlua3NjYXBlOmNvbm5lY3Rvci1jdXJ2YXR1cmU9IjAiIHN0eWxlPSJmaWxsOiMzRjU3NjU7IiBkPSJNMCw0My4zOGMwLTIuMDksMS43MS0zLjc5LDMuOC0zLjc5ICAgICBjMi4xLDAsMy44MSwxLjcsMy44MSwzLjc5YzAsMi4xLTEuNzEsMy44LTMuODEsMy44QzEuNzEsNDcuMTgsMCw0NS40OCwwLDQzLjM4eiIvPiYjeGE7CQk8L2c+JiN4YTsJCTxnIGlkPSJzaGFwZTQzNzgtNiIgdHJhbnNmb3JtPSJ0cmFuc2xhdGUoMzUuNDY4MiwtMjMuMjA3NikiPiYjeGE7CQkJPHRpdGxlIGlkPSJ0aXRsZTkwMTgzIj5TaGVldC40Mzc4PC90aXRsZT4mI3hhOwkJCTxwYXRoIGlkPSJwYXRoOTAxODUiIGlua3NjYXBlOmNvbm5lY3Rvci1jdXJ2YXR1cmU9IjAiIHN0eWxlPSJmaWxsOiMzRjU3NjU7IiBkPSJNMTguMTksMzcuNDljMC4xNC0wLjQyLDAuMjgtMC45OCwwLjI4LTEuNTUgICAgIGMwLTAuNDEtMC4xNC0wLjk4LTAuMjgtMS40YzIuMjYtMi4xLDIuMjYtMi4xLDIuMjYtMi4xYzAuMjgtMC4xNSwwLjI4LTAuNDMsMC4yOC0wLjcxYzAtMC4xMywwLTAuNDIsMC0wLjU2ICAgICBjLTAuOTgtMS42OC0wLjk4LTEuNjgtMC45OC0xLjY4Yy0wLjI5LTAuMjktMC41Ny0wLjQzLTAuOTktMC40M2MwLDAtMC4xNSwwLTAuMjksMGMtMi44MiwwLjg1LTIuODIsMC44NS0yLjgyLDAuODUgICAgIGMtMC44NC0wLjU3LTEuNjktMS4xMi0yLjY4LTEuNDFjLTAuNTYtMi45NS0wLjU2LTIuOTUtMC41Ni0yLjk1Yy0wLjE0LTAuNDItMC41Ni0wLjg0LTAuOTktMC44NGMtMS45NywwLTEuOTcsMC0xLjk3LDAgICAgIGMtMC41NiwwLTAuODUsMC40Mi0wLjk5LDAuODRjLTAuNywyLjk1LTAuNywyLjk1LTAuNywyLjk1Yy0wLjk5LDAuMjktMS44NCwwLjg0LTIuNTQsMS41NWMtMi45Ni0wLjk5LTIuOTYtMC45OS0yLjk2LTAuOTkgICAgIGMtMC4xNCwwLTAuMTQsMC0wLjI4LDBjLTAuMjgsMC0wLjcxLDAuMTQtMC44NSwwLjQzYy0wLjk5LDEuNjgtMC45OSwxLjY4LTAuOTksMS42OEMwLDMxLjMxLDAsMzEuNiwwLDMxLjczICAgICBjMCwwLjI4LDAuMTQsMC41NiwwLjI4LDAuNzFjMi40LDIuMSwyLjQsMi4xLDIuNCwyLjFjLTAuMTQsMC40Mi0wLjI4LDAuOTktMC4yOCwxLjRjMCwwLjU3LDAuMTQsMC45OSwwLjI4LDEuNTUgICAgIGMtMi40LDIuMTEtMi40LDIuMTEtMi40LDIuMTFDMC4xNCwzOS43NCwwLDQwLjAyLDAsNDAuM2MwLDAuMTQsMCwwLjI4LDAuMTQsMC40MmMwLjk5LDEuNjksMC45OSwxLjY5LDAuOTksMS42OSAgICAgYzAuMTQsMC40MiwwLjU3LDAuNTYsMC44NSwwLjU2YzAuMTQsMCwwLjE0LDAsMC4yOCwwYzIuOTYtMC45OSwyLjk2LTAuOTksMi45Ni0wLjk5YzAuNywwLjU3LDEuNTUsMS4xMywyLjU0LDEuNDEgICAgIGMwLjcsMy4wOSwwLjcsMy4wOSwwLjcsMy4wOWMwLjE0LDAuNDIsMC40MywwLjcsMC45OSwwLjdjMS45NywwLDEuOTcsMCwxLjk3LDBjMC40MywwLDAuODUtMC4yOCwwLjk5LTAuNyAgICAgYzAuNTYtMi45NSwwLjU2LTIuOTUsMC41Ni0yLjk1YzAuOTktMC40MiwxLjg0LTAuODQsMi42OC0xLjU1YzIuODIsMC45OSwyLjgyLDAuOTksMi44MiwwLjk5YzAuMTQsMCwwLjI5LDAsMC4yOSwwICAgICBjMC40MiwwLDAuNy0wLjE0LDAuOTktMC41NmMwLjk4LTEuNjksMC45OC0xLjY5LDAuOTgtMS42OWMwLTAuMTQsMC4xNC0wLjI4LDAtMC40MmMwLjE0LTAuMjgsMC0wLjU2LTAuMjgtMC43TDE4LjE5LDM3LjQ5eiAgICAgIE0xMy41NCwzNS45NGMwLDEuNjktMS40MSwzLjA5LTMuMTEsMy4wOWMtMS42OSwwLTMuMDktMS40LTMuMDktMy4wOWMwLTEuNjgsMS40LTMuMDgsMy4wOS0zLjA4ICAgICBDMTIuMTMsMzIuODYsMTMuNTQsMzQuMjYsMTMuNTQsMzUuOTR6Ii8+JiN4YTsJCTwvZz4mI3hhOwk8L2c+JiN4YTs8L2c+JiN4YTs8L3N2Zz4=;" parent="9ZHAh12ubHKS04gOAZc5-31" vertex="1">
          <mxGeometry x="52" y="45" width="56" height="46" as="geometry" />
        </mxCell>
        <mxCell id="9ZHAh12ubHKS04gOAZc5-41" value="EXPLORATORY&lt;br&gt;&amp;nbsp;DATA ANALYSIS" style="text;html=1;align=center;verticalAlign=middle;resizable=0;points=[];autosize=1;strokeColor=none;fillColor=none;" parent="9ZHAh12ubHKS04gOAZc5-31" vertex="1">
          <mxGeometry x="20" y="91" width="120" height="40" as="geometry" />
        </mxCell>
        <mxCell id="9ZHAh12ubHKS04gOAZc5-43" value="TRAINING DATASET" style="whiteSpace=wrap;html=1;fillColor=#E5CCFF;" parent="9ZHAh12ubHKS04gOAZc5-31" vertex="1">
          <mxGeometry x="10" y="190" width="60" height="126" as="geometry" />
        </mxCell>
        <mxCell id="9ZHAh12ubHKS04gOAZc5-33" value="TESTING DATASET" style="whiteSpace=wrap;html=1;fillColor=#E5CCFF;" parent="9ZHAh12ubHKS04gOAZc5-31" vertex="1">
          <mxGeometry x="90" y="190" width="60" height="126" as="geometry" />
        </mxCell>
        <mxCell id="9ZHAh12ubHKS04gOAZc5-83" value="" style="strokeWidth=2;html=1;shape=mxgraph.flowchart.annotation_2;align=left;labelPosition=right;pointerEvents=1;direction=south;" parent="9ZHAh12ubHKS04gOAZc5-31" vertex="1">
          <mxGeometry x="30" y="135" width="100" height="50" as="geometry" />
        </mxCell>
        <mxCell id="9ZHAh12ubHKS04gOAZc5-34" value="DATA MODELING &amp;&#xa;CONVERSION" style="swimlane;startSize=20;horizontal=1;containerType=tree;strokeColor=#A9C4EB;fillColor=#A680B8;" parent="1" vertex="1">
          <mxGeometry x="420" y="13.129999999999999" width="200" height="340" as="geometry" />
        </mxCell>
        <mxCell id="9ZHAh12ubHKS04gOAZc5-51" value="MACHINE LEARNING&lt;br&gt;FRAMEWORK" style="text;html=1;align=center;verticalAlign=middle;resizable=0;points=[];autosize=1;strokeColor=none;fillColor=none;" parent="9ZHAh12ubHKS04gOAZc5-34" vertex="1">
          <mxGeometry x="-10" y="130" width="140" height="40" as="geometry" />
        </mxCell>
        <mxCell id="9ZHAh12ubHKS04gOAZc5-59" value="" style="shape=image;verticalLabelPosition=bottom;labelBackgroundColor=#ffffff;verticalAlign=top;aspect=fixed;imageAspect=0;image=data:image/svg+xml,PHN2ZyB4bWxuczpkYz0iaHR0cDovL3B1cmwub3JnL2RjL2VsZW1lbnRzLzEuMS8iIHhtbG5zOmNjPSJodHRwOi8vY3JlYXRpdmVjb21tb25zLm9yZy9ucyMiIHhtbG5zOnJkZj0iaHR0cDovL3d3dy53My5vcmcvMTk5OS8wMi8yMi1yZGYtc3ludGF4LW5zIyIgeG1sbnM6c3ZnPSJodHRwOi8vd3d3LnczLm9yZy8yMDAwL3N2ZyIgeG1sbnM9Imh0dHA6Ly93d3cudzMub3JnLzIwMDAvc3ZnIiB4bWxuczpzb2RpcG9kaT0iaHR0cDovL3NvZGlwb2RpLnNvdXJjZWZvcmdlLm5ldC9EVEQvc29kaXBvZGktMC5kdGQiIHhtbG5zOmlua3NjYXBlPSJodHRwOi8vd3d3Lmlua3NjYXBlLm9yZy9uYW1lc3BhY2VzL2lua3NjYXBlIiB2ZXJzaW9uPSIxLjEiIGlkPSJzdmc5ODUyMCIgaW5rc2NhcGU6dmVyc2lvbj0iMC45Mi4zICgyNDA1NTQ2LCAyMDE4LTAzLTExKSIgc29kaXBvZGk6ZG9jbmFtZT0ic3RyZWFtX2FuYWx5dGljcy5zdmciIHg9IjBweCIgeT0iMHB4IiB2aWV3Qm94PSIwIDAgMTIxLjYxIDk0LjM3MDA2OSIgeG1sOnNwYWNlPSJwcmVzZXJ2ZSIgd2lkdGg9IjEyMS42MSIgaGVpZ2h0PSI5NC4zNzAwNzEiPjxtZXRhZGF0YSBpZD0ibWV0YWRhdGEzMDk4Ij48cmRmOlJERj48Y2M6V29yayByZGY6YWJvdXQ9IiI+PGRjOmZvcm1hdD5pbWFnZS9zdmcreG1sPC9kYzpmb3JtYXQ+PGRjOnR5cGUgcmRmOnJlc291cmNlPSJodHRwOi8vcHVybC5vcmcvZGMvZGNtaXR5cGUvU3RpbGxJbWFnZSIvPjxkYzp0aXRsZS8+PC9jYzpXb3JrPjwvcmRmOlJERj48L21ldGFkYXRhPjxkZWZzIGlkPSJkZWZzMzA5NiI+JiN4YTsJJiN4YTsmI3hhOwkmI3hhOyYjeGE7CSYjeGE7JiN4YTsJJiN4YTsmI3hhOwkmI3hhOwkmI3hhOwkmI3hhOyYjeGE7CSYjeGE7CSYjeGE7CSYjeGE7JiN4YTsJCSYjeGE7CSYjeGE7CQkmI3hhOwkmI3hhOwkJJiN4YTsJJiN4YTsJCSYjeGE7CSYjeGE7CQkmI3hhOwkmI3hhOwkJJiN4YTsJJiN4YTsJCQkmI3hhOwkJJiN4YTsJCQkmI3hhOwkJPC9kZWZzPiYjeGE7PGZpbHRlciBpZD0iZmlsdGVyXzIiPiYjeGE7CTxmZUdhdXNzaWFuQmx1ciBpZD0iZmVHYXVzc2lhbkJsdXI5ODQ1OCIgc3RkRGV2aWF0aW9uPSIyIi8+JiN4YTs8L2ZpbHRlcj4mI3hhOzxzb2RpcG9kaTpuYW1lZHZpZXcgYm9yZGVyY29sb3I9IiM2NjY2NjYiIGJvcmRlcm9wYWNpdHk9IjEiIGZpdC1tYXJnaW4tYm90dG9tPSIwIiBmaXQtbWFyZ2luLWxlZnQ9IjAiIGZpdC1tYXJnaW4tcmlnaHQ9IjAiIGZpdC1tYXJnaW4tdG9wPSIwIiBncmlkdG9sZXJhbmNlPSIxMCIgZ3VpZGV0b2xlcmFuY2U9IjEwIiBpZD0ibmFtZWR2aWV3OTg1MjIiIGlua3NjYXBlOmN1cnJlbnQtbGF5ZXI9InN2Zzk4NTIwIiBpbmtzY2FwZTpjeD0iOC40ODMzMDc2IiBpbmtzY2FwZTpjeT0iMzkuNzI2NTgiIGlua3NjYXBlOnBhZ2VvcGFjaXR5PSIwIiBpbmtzY2FwZTpwYWdlc2hhZG93PSIyIiBpbmtzY2FwZTp3aW5kb3ctaGVpZ2h0PSIxMDE3IiBpbmtzY2FwZTp3aW5kb3ctbWF4aW1pemVkPSIxIiBpbmtzY2FwZTp3aW5kb3ctd2lkdGg9IjE5MjAiIGlua3NjYXBlOndpbmRvdy14PSItOCIgaW5rc2NhcGU6d2luZG93LXk9Ii04IiBpbmtzY2FwZTp6b29tPSIzLjg2ODgxNDEiIG9iamVjdHRvbGVyYW5jZT0iMTAiIHBhZ2Vjb2xvcj0iI2ZmZmZmZiIgc2hvd2dyaWQ9ImZhbHNlIj4mI3hhOwk8L3NvZGlwb2RpOm5hbWVkdmlldz4mI3hhOyYjeGE7PHBhdGggaWQ9InBhdGg5ODQ3MSIgaW5rc2NhcGU6Y29ubmVjdG9yLWN1cnZhdHVyZT0iMCIgc3R5bGU9ImZpbGw6IzdhN2E3YSIgZD0ibSAxMDUuMzEsNjMuOTYwMDc1IDIuOTIsLTcuNTMgMTMuMzgsLTQuNjMgdiAtMTAuNyBsIC0xLjQ2LC0wLjQ4IC0xMS45MiwtMy40MSAtMi45MiwtNy41NCA2LjA4LC0xMi40IC03LjU0LC03LjU0IC0xLjQ2LDAuNzMgLTEwLjk0LDUuNTkgLTcuNzgsLTMuMTYgLTQuODcsLTEyLjg5IEggNjcuODYgbCAtMC40OSwxLjQ2IC0zLjY1LDExLjQzIC03LjU0LDIuOTIgLTEyLjg5LC01LjYgLTcuNzgsNy41NCAwLjczLDEuNDYgMy40LDYuMzMgYyA2LjA4LC0zLjQxIDEyLjQxLC00Ljg3IDE5LjIyLC00Ljg3IDkuNDgsMC40OSAxOC4yNCwzLjg5IDI1LjA1LDEwLjIyIDEuNDYsMS4yMSAyLjkyLDIuMTkgNC42MiwzLjg5IDAuNzMsMC43MyAxLjQ2LDEuOTUgMS45NSwyLjY3IDQuNjIsOC4wMyAyLjY3LDE4LjI1IC00Ljg3LDI0LjMzIC01LjU5LDQuNjIgLTEzLjM3LDUuMzUgLTE5LjIxLDIuNjcgLTAuNzMsLTAuNDkgLTEuMjIsLTAuNDkgLTEuNDYsLTAuNzMgLTEuNDYsLTAuNzMgLTIuOTIsLTEuOTQgLTQuMTQsLTIuOTIgLTAuNDgsMCAtMC43MywtMC40OCAtMS40NiwtMC40OCAtMS40NSwwIC0yLjkxLDAuNzMgLTQuMTMsMS45NCBsIC0wLjQ5LDAuNDkgYyAtNC42Miw0LjYyIC05LjcyLDguMDIgLTE1LjU2LDkuNzMgbCAtMi4xOSw0LjYyIDcuMyw3LjI5IDAuNDgsMC40OSAxLjQ2LC0wLjczIDEwLjk1LC01LjU5IDcuNTQsMi45MiA0LjEzLDEyLjg5IGggMTAuOTQgbCAwLjQ5LC0xLjQ2IDMuODksLTExLjQzIDcuNTQsLTIuOTIgMTIuODksNS41OSA3LjMsLTguMDIgLTAuNzMsLTEuNDYgeiIvPiYjeGE7JiN4YTs8cGF0aCBpZD0icGF0aDk4NDc5IiBpbmtzY2FwZTpjb25uZWN0b3ItY3VydmF0dXJlPSIwIiBzdHlsZT0iZmlsbDojNDhjOGVmIiBkPSJtIDQwLjEzLDQ0Ljk5MDA3NSBjIC04LjI3LDguNzYgLTIxLjY0LDguNzYgLTI5LjQzLC0wLjQ4IC0wLjczLC0xLjIyIC0yLjY3LC0xLjIyIC0zLjQsMCAtMC40OSwwLjQ4IC0wLjczLDEuMjEgLTAuNzMsMS45NCAwLDAuNzMgMC40OSwxLjQ2IDAuNzMsMS45NSA5LjczLDEwLjk0IDI2LjAyLDExLjE5IDM2LjQ4LDAuNDkgOC4yNywtOC4yNyAyMS4xNiwtOC41MiAyOS4xOSwwLjcyIDEuMjEsMS4yMiAyLjY3LDEuMjIgMy40LDAgMC40OSwtMC40OCAwLjczLC0xLjIxIDAuNzMsLTEuOTQgMCwtMC43MyAtMC40OCwtMS40NiAtMC43MywtMS45NSAtOS43MywtMTAuOTQgLTI2LjAyLC0xMS4xOCAtMzYuMjQsLTAuNzMgeiIvPiYjeGE7JiN4YTs8cGF0aCBpZD0icGF0aDk4NDg3IiBpbmtzY2FwZTpjb25uZWN0b3ItY3VydmF0dXJlPSIwIiBzdHlsZT0iZmlsbDojMDBhYmVjIiBkPSJtIDU4LjM3LDQ5LjYyMDA3NSBjIC00LjYyLDAgLTguMjcsMS40NiAtMTEuNjcsNC44NiBsIC0wLjQ5LDAuNDkgLTAuNDksMC40OSBjIC01LjU5LDYuMDggLTEzLjM3LDkgLTIxLjE2LDguNzUgLTguMDIsMCAtMTUuMDcsLTMuODkgLTIwLjkxLC05LjczIC0xLjIyLC0xLjIxIC0yLjY4LC0xLjIxIC0zLjQxLDAgLTAuMjQsMCAtMC4yNCwwLjQ5IC0wLjI0LDEuMjIgMCwwLjczIDAuNzMsMS45NSAxLjIyLDIuMTkgNi4zMiw3LjMgMTUuMDgsMTEuNDMgMjQuMzIsMTEuNDMgOSwwLjQ5IDE3Ljc1LC0zLjQgMjQuNTYsLTEwLjcgbCAwLjQ5LC0wLjQ5IDAuNDgsLTAuNDggYyAyLjE5LC0yLjE5IDQuODcsLTMuNDEgOC4wMywtMy40MSAyLjkyLDAgNS41OSwxLjQ2IDguMDMsMy44OSAxLjIxLDEuMjIgMi42NywxLjIyIDMuNCwwIDAuNDksLTAuNDggMC43MywtMS4yMSAwLjczLC0xLjk0IDAsLTAuNzMgLTAuNDksLTEuNDYgLTAuNzMsLTEuOTUgLTMuNCwtMi42NyAtNy41NCwtNC42MiAtMTIuMTYsLTQuNjIgeiIvPiYjeGE7JiN4YTs8cGF0aCBpZD0icGF0aDk4NDk1IiBpbmtzY2FwZTpjb25uZWN0b3ItY3VydmF0dXJlPSIwIiBzdHlsZT0iZmlsbDojODRkNmVmIiBkPSJtIDM3Ljk0LDM5LjY0MDA3NSBjIDUuNTksLTYuMDggMTMuMzgsLTkgMjEuMTYsLTkgNy43OCwwIDE1LjA4LDMuODkgMjAuNDMsOS43MyAxLjIyLDEuMjIgMi42OCwxLjIyIDMuNDEsMCAwLjQ4LC0wLjQ5IDAuNzIsLTEuMjIgMC43MiwtMS45NSAwLC0wLjczIC0wLjQ4LC0xLjQ2IC0wLjcyLC0xLjk0IC02LjMzLC03LjMgLTE1LjA4LC0xMS40MyAtMjQuMzMsLTExLjQzIC05LjI0LDAgLTE3Ljc1LDMuNCAtMjQuNTYsMTAuNyBsIC0wLjQ5LDAuNDggLTAuNDgsMC40OSBjIC0yLjE5LDIuMTkgLTQuODcsMy40MSAtOC4wMywzLjQxIC0zLjE2LDAgLTUuNTksLTEuNDYgLTguMDMsLTMuOSAtMS4yMSwtMS4yMSAtMi42NywtMS4yMSAtMy40LDAgLTAuNDksMC40OSAtMC43MywxLjIyIC0wLjczLDEuOTUgMCwwLjczIDAuNDksMS40NiAwLjczLDEuOTUgMi45MiwzLjQgNy4zLDUuMzUgMTEuNDMsNS4zNSA0LjYyLDAgOC4yNywtMS40NiAxMS42NywtNC44NyBsIDAuNDksLTAuNDggeiIvPiYjeGE7JiN4YTs8cGF0aCBkPSJtIDM5Ljg4OTY2LDI1Ljc4IGMgNi4wOCwtMy40IDEyLjQsLTQuODYgMTkuMjEsLTQuODYgOS40OSwwLjQ4IDE4LjI0LDMuODkgMjUuMDUsMTAuMjEgMS4yMiwwLjk3IDIuMTksMS43IDMuNDEsMi42OCBsIDIwLjE4LC0yMC4xOSAtNC4xMywtNC4xMyAtMS40NiwwLjcyIC0xMC45NCw1LjYgLTcuNTQsLTIuOTIgLTQuODcsLTEyLjg5IGggLTEwLjk0IGwgLTAuNDksMS40NiAtMy42NSwxMS40MyAtNy41NCwyLjkyIC0xMi44OSwtNS42IC03Ljc4LDcuNTQgMC43MywxLjQ2IHoiIHN0eWxlPSJmaWxsOiNmMWYxZjE7ZmlsbC1vcGFjaXR5OjAuMiIgaW5rc2NhcGU6Y29ubmVjdG9yLWN1cnZhdHVyZT0iMCIgaWQ9InBhdGg5ODUxMyIvPiYjeGE7PC9zdmc+;" parent="9ZHAh12ubHKS04gOAZc5-34" vertex="1">
          <mxGeometry x="14" y="75" width="71.38" height="55" as="geometry" />
        </mxCell>
        <mxCell id="Y3FegI15y7X9WpJE8XwI-1" value="" style="shape=image;verticalLabelPosition=bottom;labelBackgroundColor=#ffffff;verticalAlign=top;aspect=fixed;imageAspect=0;image=data:image/svg+xml,PHN2ZyB4bWxuczpjYz0iaHR0cDovL2NyZWF0aXZlY29tbW9ucy5vcmcvbnMjIiB4bWxuczpkYz0iaHR0cDovL3B1cmwub3JnL2RjL2VsZW1lbnRzLzEuMS8iIHhtbG5zOmlua3NjYXBlPSJodHRwOi8vd3d3Lmlua3NjYXBlLm9yZy9uYW1lc3BhY2VzL2lua3NjYXBlIiB4bWxuczpyZGY9Imh0dHA6Ly93d3cudzMub3JnLzE5OTkvMDIvMjItcmRmLXN5bnRheC1ucyMiIHhtbG5zOnNvZGlwb2RpPSJodHRwOi8vc29kaXBvZGkuc291cmNlZm9yZ2UubmV0L0RURC9zb2RpcG9kaS0wLmR0ZCIgeG1sbnM6c3ZnPSJodHRwOi8vd3d3LnczLm9yZy8yMDAwL3N2ZyIgeG1sbnM9Imh0dHA6Ly93d3cudzMub3JnLzIwMDAvc3ZnIiB4bWxuczp4bGluaz0iaHR0cDovL3d3dy53My5vcmcvMTk5OS94bGluayIgdmVyc2lvbj0iMS4xIiBpZD0ic3ZnNDM1NTgiIGlua3NjYXBlOnZlcnNpb249IjAuOTIuMyAoMjQwNTU0NiwgMjAxOC0wMy0xMSkiIHNvZGlwb2RpOmRvY25hbWU9ImNhY2hpbmcuc3ZnIiB4PSIwcHgiIHk9IjBweCIgdmlld0JveD0iMCAwIDI0LjYxIDI1LjQiIHN0eWxlPSJlbmFibGUtYmFja2dyb3VuZDpuZXcgMCAwIDI0LjYxIDI1LjQ7IiB4bWw6c3BhY2U9InByZXNlcnZlIj4mI3hhOzxzb2RpcG9kaTpuYW1lZHZpZXcgYm9yZGVyY29sb3I9IiM2NjY2NjYiIGJvcmRlcm9wYWNpdHk9IjEiIGZpdC1tYXJnaW4tYm90dG9tPSIwIiBmaXQtbWFyZ2luLWxlZnQ9IjAiIGZpdC1tYXJnaW4tcmlnaHQ9IjAiIGZpdC1tYXJnaW4tdG9wPSIwIiBncmlkdG9sZXJhbmNlPSIxMCIgZ3VpZGV0b2xlcmFuY2U9IjEwIiBpZD0ibmFtZWR2aWV3NDM1NjAiIGlua3NjYXBlOmN1cnJlbnQtbGF5ZXI9InN2ZzQzNTU4IiBpbmtzY2FwZTpjeD0iMTkuMTI5OTYiIGlua3NjYXBlOmN5PSI3LjE4NzU2NzIiIGlua3NjYXBlOnBhZ2VvcGFjaXR5PSIwIiBpbmtzY2FwZTpwYWdlc2hhZG93PSIyIiBpbmtzY2FwZTp3aW5kb3ctaGVpZ2h0PSIxMDE3IiBpbmtzY2FwZTp3aW5kb3ctbWF4aW1pemVkPSIxIiBpbmtzY2FwZTp3aW5kb3ctd2lkdGg9IjE5MjAiIGlua3NjYXBlOndpbmRvdy14PSItOCIgaW5rc2NhcGU6d2luZG93LXk9Ii04IiBpbmtzY2FwZTp6b29tPSI5LjA1MTY2NDkiIG9iamVjdHRvbGVyYW5jZT0iMTAiIHBhZ2Vjb2xvcj0iI2ZmZmZmZiIgc2hvd2dyaWQ9ImZhbHNlIj4mI3hhOwk8L3NvZGlwb2RpOm5hbWVkdmlldz4mI3hhOzxnIGlkPSJnNDM1NTYiIHRyYW5zZm9ybT0idHJhbnNsYXRlKDAsLTEuNTEwMDM1NGUtNSkiPiYjeGE7CTx0aXRsZSBpZD0idGl0bGU0MzU0OSI+UGFnZS0xPC90aXRsZT4mI3hhOwk8ZyBpZD0ic2hhcGUxNjExLTEiPiYjeGE7CQk8dGl0bGUgaWQ9InRpdGxlNDM1NTEiPkNhY2hpbmc8L3RpdGxlPiYjeGE7CQk8cGF0aCBpZD0icGF0aDQzNTUzIiBpbmtzY2FwZTpjb25uZWN0b3ItY3VydmF0dXJlPSIwIiBzdHlsZT0iZmlsbDojM0Y1NzY1OyIgZD0iTTEzLjYsMTEuOTRjLTAuNDMtMC44My00Ljg2LTYuMTYtNC45OS02LjEgICAgYy0wLjE4LDAuMTMsMS42MSw2Ljg2LDIuMDQsNy42OWMwLjQzLDAuODIsMS40MiwxLjE0LDIuMjcsMC43QzEzLjcyLDEzLjc4LDE0LjAzLDEyLjc3LDEzLjYsMTEuOTR6IE0xOS4yNiwxMi42NCAgICBjLTEuMjksMC0xLjI5LDAtMS4yOSwwYy0wLjMxLDAtMC40OS0wLjI1LTAuNDktMC41MWMwLTAuMjUsMC4xOC0wLjQ0LDAuNDktMC40NGMxLjI5LDAsMS4yOSwwLDEuMjksMGMwLjI1LDAsMC40MywwLjE5LDAuNDMsMC40NCAgICBDMTkuNjksMTIuMzksMTkuNTEsMTIuNjQsMTkuMjYsMTIuNjR6IE0xMi4zMSwwQzUuNTQsMCwwLDUuNzIsMCwxMi43YzAsNi45OSw1LjU0LDEyLjcsMTIuMzEsMTIuN2M2Ljc2LDAsMTIuMy01LjcxLDEyLjMtMTIuNyAgICBDMjQuNjEsNS43MiwxOS4wNywwLDEyLjMxLDB6IE0xMi4zMSwzLjI0YzUuMDUsMCw5LjE2LDQuMjYsOS4xNiw5LjQ2YzAsMC42NC0wLjA2LDEuMjctMC4xOCwxLjg1Yy01LjE3LDAtNS4xNywwLTUuMTcsMCAgICBjLTAuNDMsMS4zMi0xLjk3LDIuMjgtMy44MSwyLjI4Yy0xLjg1LDAtMy4zOS0wLjk2LTMuODItMi4yOGMtNS4xNywwLTUuMTcsMC01LjE3LDBjLTAuMTItMC41OC0wLjE4LTEuMjEtMC4xOC0xLjg1ICAgIEMzLjE0LDcuNSw3LjI2LDMuMjQsMTIuMzEsMy4yNHogTTE2LjgsOS45MWMtMC4xMiwwLTAuMzEtMC4wNy0wLjM3LTAuMTljLTAuMTItMC4yNi0wLjA2LTAuNTgsMC4xMi0wLjcgICAgYzEuMTctMC42NCwxLjE3LTAuNjQsMS4xNy0wLjY0YzAuMTktMC4xMiwwLjUtMC4wNiwwLjYyLDAuMmMwLjEyLDAuMTgsMC4wNiwwLjUtMC4xOSwwLjYzYy0xLjEsMC42My0xLjEsMC42My0xLjEsMC42MyAgICBDMTYuOTksOS45MSwxNi44Niw5LjkxLDE2LjgsOS45MXogTTEyLjMxLDcuNjJjLTAuMjQsMC0wLjQzLTAuMjUtMC40My0wLjVjMC0xLjM0LDAtMS4zNCwwLTEuMzRjMC0wLjI1LDAuMTktMC41LDAuNDMtMC41ICAgIGMwLjI0LDAsMC40OSwwLjI1LDAuNDksMC41YzAsMS4zNCwwLDEuMzQsMCwxLjM0QzEyLjgsNy4zNywxMi41NSw3LjYyLDEyLjMxLDcuNjJ6IE0xNC44OSw4LjI2Yy0wLjA2LDAtMC4xOCwwLTAuMjQtMC4wNiAgICBjLTAuMTktMC4xMy0wLjMxLTAuMzktMC4xMi0wLjY0YzAuNjEtMS4xNCwwLjYxLTEuMTQsMC42MS0xLjE0YzAuMTItMC4yNiwwLjQzLTAuMzIsMC42Mi0wLjJjMC4yNCwwLjEzLDAuMywwLjQ1LDAuMTgsMC42NCAgICBDMTUuMzIsOCwxNS4zMiw4LDE1LjMyLDhDMTUuMiw4LjIsMTUuMDcsOC4yNiwxNC44OSw4LjI2eiBNNi41OSwxMi43Yy0xLjI5LDAtMS4yOSwwLTEuMjksMGMtMC4yNSwwLTAuNDQtMC4yNS0wLjQ0LTAuNTEgICAgYzAtMC4yNSwwLjE5LTAuNDQsMC40NC0wLjQ0YzEuMjksMCwxLjI5LDAsMS4yOSwwYzAuMzEsMCwwLjQ5LDAuMTksMC40OSwwLjQ0QzcuMDgsMTIuNDUsNi45LDEyLjcsNi41OSwxMi43eiBNNy43NiwxMC4xNyAgICBjLTAuMTMsMC0wLjE5LDAtMC4yNS0wLjA3QzYuNCw5LjQsNi40LDkuNCw2LjQsOS40QzYuMTUsOS4yNyw2LjA5LDkuMDIsNi4yMiw4Ljc2YzAuMTItMC4yNSwwLjQzLTAuMzEsMC42Mi0wLjE4ICAgIGMxLjEsMC42OSwxLjEsMC42OSwxLjEsMC42OUM4LjE5LDkuNCw4LjI1LDkuNzIsOC4xMyw5LjkxQzguMDcsMTAuMSw3Ljg4LDEwLjE3LDcuNzYsMTAuMTd6Ii8+JiN4YTsJPC9nPiYjeGE7PC9nPiYjeGE7PC9zdmc+;" parent="9ZHAh12ubHKS04gOAZc5-34" vertex="1">
          <mxGeometry x="105" y="170" width="50" height="50" as="geometry" />
        </mxCell>
        <mxCell id="Y3FegI15y7X9WpJE8XwI-3" style="edgeStyle=orthogonalEdgeStyle;rounded=0;orthogonalLoop=1;jettySize=auto;html=1;" parent="9ZHAh12ubHKS04gOAZc5-34" source="9ZHAh12ubHKS04gOAZc5-59" target="Y3FegI15y7X9WpJE8XwI-1" edge="1">
          <mxGeometry relative="1" as="geometry" />
        </mxCell>
        <mxCell id="9ZHAh12ubHKS04gOAZc5-77" style="edgeStyle=orthogonalEdgeStyle;rounded=0;orthogonalLoop=1;jettySize=auto;html=1;entryX=0;entryY=0.75;entryDx=0;entryDy=0;" parent="1" source="9ZHAh12ubHKS04gOAZc5-39" target="9ZHAh12ubHKS04gOAZc5-38" edge="1">
          <mxGeometry relative="1" as="geometry" />
        </mxCell>
        <mxCell id="9ZHAh12ubHKS04gOAZc5-39" value="" style="image;sketch=0;aspect=fixed;html=1;points=[];align=center;fontSize=12;image=img/lib/mscae/Databricks.svg;" parent="1" vertex="1">
          <mxGeometry x="80" y="149" width="50" height="48" as="geometry" />
        </mxCell>
        <mxCell id="9ZHAh12ubHKS04gOAZc5-44" value="RESULTS &amp; EVALUATION" style="swimlane;startSize=20;horizontal=1;containerType=tree;strokeColor=#A9C4EB;fillColor=#A680B8;" parent="1" vertex="1">
          <mxGeometry x="645" y="15" width="170" height="345" as="geometry" />
        </mxCell>
        <mxCell id="9ZHAh12ubHKS04gOAZc5-57" value="" style="shape=image;verticalLabelPosition=bottom;labelBackgroundColor=#ffffff;verticalAlign=top;aspect=fixed;imageAspect=0;image=data:image/svg+xml,PHN2ZyB4bWxuczpjYz0iaHR0cDovL2NyZWF0aXZlY29tbW9ucy5vcmcvbnMjIiB4bWxuczpkYz0iaHR0cDovL3B1cmwub3JnL2RjL2VsZW1lbnRzLzEuMS8iIHhtbG5zOmlua3NjYXBlPSJodHRwOi8vd3d3Lmlua3NjYXBlLm9yZy9uYW1lc3BhY2VzL2lua3NjYXBlIiB4bWxuczpyZGY9Imh0dHA6Ly93d3cudzMub3JnLzE5OTkvMDIvMjItcmRmLXN5bnRheC1ucyMiIHhtbG5zOnNvZGlwb2RpPSJodHRwOi8vc29kaXBvZGkuc291cmNlZm9yZ2UubmV0L0RURC9zb2RpcG9kaS0wLmR0ZCIgeG1sbnM6c3ZnPSJodHRwOi8vd3d3LnczLm9yZy8yMDAwL3N2ZyIgeG1sbnM9Imh0dHA6Ly93d3cudzMub3JnLzIwMDAvc3ZnIiB4bWxuczp4bGluaz0iaHR0cDovL3d3dy53My5vcmcvMTk5OS94bGluayIgdmVyc2lvbj0iMS4xIiBpZD0ic3ZnMTAzNjgwIiBpbmtzY2FwZTp2ZXJzaW9uPSIwLjkyLjMgKDI0MDU1NDYsIDIwMTgtMDMtMTEpIiBzb2RpcG9kaTpkb2NuYW1lPSJ2c19vbmxpbmVfdmlzdWFsaXplX3Byb2dyZXNzLnN2ZyIgeD0iMHB4IiB5PSIwcHgiIHZpZXdCb3g9IjAgMCA0NS43NSAzMC4zNyIgc3R5bGU9ImVuYWJsZS1iYWNrZ3JvdW5kOm5ldyAwIDAgNDUuNzUgMzAuMzc7IiB4bWw6c3BhY2U9InByZXNlcnZlIj4mI3hhOzxzb2RpcG9kaTpuYW1lZHZpZXcgYm9yZGVyY29sb3I9IiM2NjY2NjYiIGJvcmRlcm9wYWNpdHk9IjEiIGZpdC1tYXJnaW4tYm90dG9tPSIwIiBmaXQtbWFyZ2luLWxlZnQ9IjAiIGZpdC1tYXJnaW4tcmlnaHQ9IjAiIGZpdC1tYXJnaW4tdG9wPSIwIiBncmlkdG9sZXJhbmNlPSIxMCIgZ3VpZGV0b2xlcmFuY2U9IjEwIiBpZD0ibmFtZWR2aWV3MTAzNjgyIiBpbmtzY2FwZTpjdXJyZW50LWxheWVyPSJzdmcxMDM2ODAiIGlua3NjYXBlOmN4PSIzNy4zOTEyNDYiIGlua3NjYXBlOmN5PSIxMy40NzQxNDQiIGlua3NjYXBlOnBhZ2VvcGFjaXR5PSIwIiBpbmtzY2FwZTpwYWdlc2hhZG93PSIyIiBpbmtzY2FwZTp3aW5kb3ctaGVpZ2h0PSIxMDE3IiBpbmtzY2FwZTp3aW5kb3ctbWF4aW1pemVkPSIxIiBpbmtzY2FwZTp3aW5kb3ctd2lkdGg9IjE5MjAiIGlua3NjYXBlOndpbmRvdy14PSItOCIgaW5rc2NhcGU6d2luZG93LXk9Ii04IiBpbmtzY2FwZTp6b29tPSIxMC4yMDAwMDgiIG9iamVjdHRvbGVyYW5jZT0iMTAiIHBhZ2Vjb2xvcj0iI2ZmZmZmZiIgc2hvd2dyaWQ9ImZhbHNlIj4mI3hhOwk8L3NvZGlwb2RpOm5hbWVkdmlldz4mI3hhOzxnIGlkPSJnMTAzNjc4IiB0cmFuc2Zvcm09InRyYW5zbGF0ZSgtMC43NSwtMC43NSkiPiYjeGE7CTx0aXRsZSBpZD0idGl0bGUxMDM2MzgiPlBhZ2UtMTwvdGl0bGU+JiN4YTsJPGcgaWQ9Imdyb3VwNDI2Mi0xIiB0cmFuc2Zvcm09InRyYW5zbGF0ZSgwLjc1LC0wLjc1KSI+JiN4YTsJCTx0aXRsZSBpZD0idGl0bGUxMDM2NDAiPlZTIE9ubGluZSAtIFZpc3VhbGl6ZSBQcm9ncmVzczwvdGl0bGU+JiN4YTsJCTxnIGlkPSJzaGFwZTQyNjMtMiI+JiN4YTsJCQk8dGl0bGUgaWQ9InRpdGxlMTAzNjQyIj5TaGVldC40MjYzPC90aXRsZT4mI3hhOwkJCTxyZWN0IGlkPSJyZWN0MTAzNjQ0IiB4PSIwIiB5PSIyMi40NSIgc3R5bGU9ImZpbGw6IzE2NzNCQTsiIHdpZHRoPSI1LjI1IiBoZWlnaHQ9IjkuNDIiLz4mI3hhOwkJPC9nPiYjeGE7CQk8ZyBpZD0ic2hhcGU0MjY0LTQiIHRyYW5zZm9ybT0idHJhbnNsYXRlKDYuNzUpIj4mI3hhOwkJCTx0aXRsZSBpZD0idGl0bGUxMDM2NDciPlNoZWV0LjQyNjQ8L3RpdGxlPiYjeGE7CQkJPHJlY3QgaWQ9InJlY3QxMDM2NDkiIHg9IjAiIHk9IjQuODgiIHN0eWxlPSJmaWxsOiM2OTJBN0I7IiB3aWR0aD0iNS4yNSIgaGVpZ2h0PSIyNyIvPiYjeGE7CQk8L2c+JiN4YTsJCTxnIGlkPSJzaGFwZTQyNjUtNiIgdHJhbnNmb3JtPSJ0cmFuc2xhdGUoMjAuMjUpIj4mI3hhOwkJCTx0aXRsZSBpZD0idGl0bGUxMDM2NTIiPlNoZWV0LjQyNjU8L3RpdGxlPiYjeGE7CQkJPHJlY3QgaWQ9InJlY3QxMDM2NTQiIHg9IjAiIHk9IjExLjYzIiBzdHlsZT0iZmlsbDojMUE1MDlCOyIgd2lkdGg9IjUuMjUiIGhlaWdodD0iMjAuMjUiLz4mI3hhOwkJPC9nPiYjeGE7CQk8ZyBpZD0ic2hhcGU0MjY2LTgiIHRyYW5zZm9ybT0idHJhbnNsYXRlKDI3KSI+JiN4YTsJCQk8dGl0bGUgaWQ9InRpdGxlMTAzNjU3Ij5TaGVldC40MjY2PC90aXRsZT4mI3hhOwkJCTxyZWN0IGlkPSJyZWN0MTAzNjU5IiB4PSIwIiB5PSIxLjUiIHN0eWxlPSJmaWxsOiM5QzUwOTg7IiB3aWR0aD0iNS4yNSIgaGVpZ2h0PSIzMC4zOCIvPiYjeGE7CQk8L2c+JiN4YTsJCTxnIGlkPSJzaGFwZTQyNjctMTAiIHRyYW5zZm9ybT0idHJhbnNsYXRlKDEzLjUpIj4mI3hhOwkJCTx0aXRsZSBpZD0idGl0bGUxMDM2NjIiPlNoZWV0LjQyNjc8L3RpdGxlPiYjeGE7CQkJPHJlY3QgaWQ9InJlY3QxMDM2NjQiIHg9IjAiIHk9IjIxLjM4IiBzdHlsZT0iZmlsbDojMzZDNkYzOyIgd2lkdGg9IjUuMjUiIGhlaWdodD0iMTAuNSIvPiYjeGE7CQk8L2c+JiN4YTsJCTxnIGlkPSJzaGFwZTQyNjgtMTIiIHRyYW5zZm9ybT0idHJhbnNsYXRlKDMzLjc1KSI+JiN4YTsJCQk8dGl0bGUgaWQ9InRpdGxlMTAzNjY3Ij5TaGVldC40MjY4PC90aXRsZT4mI3hhOwkJCTxyZWN0IGlkPSJyZWN0MTAzNjY5IiB4PSIwIiB5PSIxOS44OCIgc3R5bGU9ImZpbGw6IzE2MjQ0RTsiIHdpZHRoPSI1LjI1IiBoZWlnaHQ9IjEyIi8+JiN4YTsJCTwvZz4mI3hhOwkJPGcgaWQ9InNoYXBlNDI2OS0xNCIgdHJhbnNmb3JtPSJ0cmFuc2xhdGUoNDAuNSkiPiYjeGE7CQkJPHRpdGxlIGlkPSJ0aXRsZTEwMzY3MiI+U2hlZXQuNDI2OTwvdGl0bGU+JiN4YTsJCQk8cmVjdCBpZD0icmVjdDEwMzY3NCIgeD0iMCIgeT0iMTEuNjMiIHN0eWxlPSJmaWxsOiM5QzUwOTg7IiB3aWR0aD0iNS4yNSIgaGVpZ2h0PSIyMC4yNSIvPiYjeGE7CQk8L2c+JiN4YTsJPC9nPiYjeGE7PC9nPiYjeGE7PC9zdmc+;" parent="9ZHAh12ubHKS04gOAZc5-44" vertex="1">
          <mxGeometry x="28.430000000000003" y="220" width="107.33" height="70" as="geometry" />
        </mxCell>
        <mxCell id="9ZHAh12ubHKS04gOAZc5-61" value="" style="shape=image;verticalLabelPosition=bottom;labelBackgroundColor=#ffffff;verticalAlign=top;aspect=fixed;imageAspect=0;image=data:image/svg+xml,PHN2ZyB4bWxuczpjYz0iaHR0cDovL2NyZWF0aXZlY29tbW9ucy5vcmcvbnMjIiB4bWxuczpkYz0iaHR0cDovL3B1cmwub3JnL2RjL2VsZW1lbnRzLzEuMS8iIHhtbG5zOmlua3NjYXBlPSJodHRwOi8vd3d3Lmlua3NjYXBlLm9yZy9uYW1lc3BhY2VzL2lua3NjYXBlIiB4bWxuczpyZGY9Imh0dHA6Ly93d3cudzMub3JnLzE5OTkvMDIvMjItcmRmLXN5bnRheC1ucyMiIHhtbG5zOnNvZGlwb2RpPSJodHRwOi8vc29kaXBvZGkuc291cmNlZm9yZ2UubmV0L0RURC9zb2RpcG9kaS0wLmR0ZCIgeG1sbnM6c3ZnPSJodHRwOi8vd3d3LnczLm9yZy8yMDAwL3N2ZyIgeG1sbnM9Imh0dHA6Ly93d3cudzMub3JnLzIwMDAvc3ZnIiB4bWxuczp4bGluaz0iaHR0cDovL3d3dy53My5vcmcvMTk5OS94bGluayIgdmVyc2lvbj0iMS4xIiBpZD0ic3ZnMTA3Nzc4IiBpbmtzY2FwZTp2ZXJzaW9uPSIwLjkyLjMgKDI0MDU1NDYsIDIwMTgtMDMtMTEpIiBzb2RpcG9kaTpkb2NuYW1lPSJ0YXNrX2xpc3Quc3ZnIiB4PSIwcHgiIHk9IjBweCIgdmlld0JveD0iMCAwIDQ4IDY1Ljc0IiBzdHlsZT0iZW5hYmxlLWJhY2tncm91bmQ6bmV3IDAgMCA0OCA2NS43NDsiIHhtbDpzcGFjZT0icHJlc2VydmUiPiYjeGE7PHNvZGlwb2RpOm5hbWVkdmlldyBib3JkZXJjb2xvcj0iIzY2NjY2NiIgYm9yZGVyb3BhY2l0eT0iMSIgZml0LW1hcmdpbi1ib3R0b209IjAiIGZpdC1tYXJnaW4tbGVmdD0iMCIgZml0LW1hcmdpbi1yaWdodD0iMCIgZml0LW1hcmdpbi10b3A9IjAiIGdyaWR0b2xlcmFuY2U9IjEwIiBndWlkZXRvbGVyYW5jZT0iMTAiIGlkPSJuYW1lZHZpZXcxMDc3ODAiIGlua3NjYXBlOmN1cnJlbnQtbGF5ZXI9InN2ZzEwNzc3OCIgaW5rc2NhcGU6Y3g9IjMyIiBpbmtzY2FwZTpjeT0iNDMuODI1MDEiIGlua3NjYXBlOnBhZ2VvcGFjaXR5PSIwIiBpbmtzY2FwZTpwYWdlc2hhZG93PSIyIiBpbmtzY2FwZTp3aW5kb3ctaGVpZ2h0PSIxMDE3IiBpbmtzY2FwZTp3aW5kb3ctbWF4aW1pemVkPSIxIiBpbmtzY2FwZTp3aW5kb3ctd2lkdGg9IjE5MjAiIGlua3NjYXBlOndpbmRvdy14PSItOCIgaW5rc2NhcGU6d2luZG93LXk9Ii04IiBpbmtzY2FwZTp6b29tPSI5LjY3MDIxOTIiIG9iamVjdHRvbGVyYW5jZT0iMTAiIHBhZ2Vjb2xvcj0iI2ZmZmZmZiIgc2hvd2dyaWQ9ImZhbHNlIj4mI3hhOwk8L3NvZGlwb2RpOm5hbWVkdmlldz4mI3hhOzxnIGlkPSJnMTA3Nzc2IiB0cmFuc2Zvcm09InRyYW5zbGF0ZSgtMC43NSwtMC43NDc0NTY1MikiPiYjeGE7CTx0aXRsZSBpZD0idGl0bGUxMDc3MzEiPlBhZ2UtMTwvdGl0bGU+JiN4YTsJPGcgaWQ9Imdyb3VwNTIxMC0xIiB0cmFuc2Zvcm09InRyYW5zbGF0ZSgwLjc1LC0wLjc1KSI+JiN4YTsJCTx0aXRsZSBpZD0idGl0bGUxMDc3MzMiPlRhc2sgTGlzdDwvdGl0bGU+JiN4YTsJCTxnIGlkPSJzaGFwZTUyMTEtMiI+JiN4YTsJCQk8dGl0bGUgaWQ9InRpdGxlMTA3NzM1Ij5yZWN0MTAxNzI8L3RpdGxlPiYjeGE7CQkJPHBhdGggaWQ9InBhdGgxMDc3MzciIGlua3NjYXBlOmNvbm5lY3Rvci1jdXJ2YXR1cmU9IjAiIHN0eWxlPSJmaWxsOiM4MDkwQTg7IiBkPSJNMCw2NS41MmMwLDAuOTUsMC43NywxLjcyLDEuNzIsMS43Mmg0NC41NSAgICAgYzAuOTUsMCwxLjczLTAuNzcsMS43My0xLjcyVjEyLjk1YzAtMC45NS0wLjc4LTEuNzItMS43My0xLjcySDEuNzJDMC43NywxMS4yMywwLDEyLDAsMTIuOTVWNjUuNTJ6Ii8+JiN4YTsJCTwvZz4mI3hhOwkJPGcgaWQ9InNoYXBlNTIxMi00IiB0cmFuc2Zvcm09InRyYW5zbGF0ZSg5LjcxMjUxLC01MS41MTc1KSI+JiN4YTsJCQk8dGl0bGUgaWQ9InRpdGxlMTA3NzQwIj5wYXRoMTAxNzQ8L3RpdGxlPiYjeGE7CQkJPHBhdGggaWQ9InBhdGgxMDc3NDIiIGlua3NjYXBlOmNvbm5lY3Rvci1jdXJ2YXR1cmU9IjAiIHN0eWxlPSJmaWxsOiMyRTJFMkU7IiBkPSJNMjUuNTgsNTguMjRoLTUuODcgICAgIGMtMC4xNi0zLjA0LTIuNzUtNS4zOC01Ljc5LTUuMjJjLTIuODIsMC4xNS01LjA3LDIuNC01LjIyLDUuMjJIM2MtMS42NiwwLTMsMS4zNC0zLDN2NmgyOC41VjYxLjIgICAgIEMyOC41LDU5LjU4LDI3LjIsNTguMjYsMjUuNTgsNTguMjR6IE0xNC4xMSw2MC40M2MtMS4yMSwwLjAxLTIuMjEtMC45Ny0yLjIxLTIuMThjLTAuMDEtMS4yMSwwLjk3LTIuMjEsMi4xOC0yLjIxICAgICBjMS4yMS0wLjAxLDIuMjEsMC45NywyLjIxLDIuMThjMCwwLjAxLDAsMC4wMiwwLDAuMDJDMTYuMjksNTkuNDQsMTUuMzEsNjAuNDIsMTQuMTEsNjAuNDN6Ii8+JiN4YTsJCTwvZz4mI3hhOwkJPGcgaWQ9InNoYXBlNTIxMy02IiB0cmFuc2Zvcm09InRyYW5zbGF0ZSgxOCwtMzYuNTE3NSkiPiYjeGE7CQkJPHRpdGxlIGlkPSJ0aXRsZTEwNzc0NSI+cmVjdDEwMTc2PC90aXRsZT4mI3hhOwkJCTxyZWN0IGlkPSJyZWN0MTA3NzQ3IiB5PSI2NC4yNCIgc3R5bGU9ImZpbGw6I0ZGRkZGRjsiIHdpZHRoPSIyNC43NSIgaGVpZ2h0PSIzIi8+JiN4YTsJCTwvZz4mI3hhOwkJPGcgaWQ9InNoYXBlNTIxNC04IiB0cmFuc2Zvcm09InRyYW5zbGF0ZSg0LjY5NTAxLC0zNC45MDUpIj4mI3hhOwkJCTx0aXRsZSBpZD0idGl0bGUxMDc3NTAiPnBvbHlnb24xMDE3ODwvdGl0bGU+JiN4YTsJCQk8cGF0aCBpZD0icGF0aDEwNzc1MiIgaW5rc2NhcGU6Y29ubmVjdG9yLWN1cnZhdHVyZT0iMCIgc3R5bGU9ImZpbGw6I0ZGRkZGRjsiIGQ9Ik0wLDYyLjkybDEuNjYtMS4xbDIuMDgsMy4xMWw1Ljc4LTcuODggICAgIGwxLjYxLDEuMTdsLTYuNjIsOS4wMmwtMS42NC0wLjAzTDAsNjIuOTJ6Ii8+JiN4YTsJCTwvZz4mI3hhOwkJPGcgaWQ9InNoYXBlNTIxNS0xMCIgdHJhbnNmb3JtPSJ0cmFuc2xhdGUoMTgsLTI0LjUxNzUpIj4mI3hhOwkJCTx0aXRsZSBpZD0idGl0bGUxMDc3NTUiPnJlY3QxMDE4MDwvdGl0bGU+JiN4YTsJCQk8cmVjdCBpZD0icmVjdDEwNzc1NyIgeT0iNjQuMjQiIHN0eWxlPSJmaWxsOiNGRkZGRkY7IiB3aWR0aD0iMjQuNzUiIGhlaWdodD0iMyIvPiYjeGE7CQk8L2c+JiN4YTsJCTxnIGlkPSJzaGFwZTUyMTYtMTIiIHRyYW5zZm9ybT0idHJhbnNsYXRlKDQuNjk1MDEsLTIyLjYwNSkiPiYjeGE7CQkJPHRpdGxlIGlkPSJ0aXRsZTEwNzc2MCI+cG9seWdvbjEwMTgyPC90aXRsZT4mI3hhOwkJCTxwYXRoIGlkPSJwYXRoMTA3NzYyIiBpbmtzY2FwZTpjb25uZWN0b3ItY3VydmF0dXJlPSIwIiBzdHlsZT0iZmlsbDojRkZGRkZGOyIgZD0iTTAsNjIuOTJsMS42Ni0xLjExbDIuMDgsMy4xMmw1Ljc4LTcuODggICAgIGwxLjYxLDEuMTdsLTYuNjIsOS4wMmwtMS42NC0wLjAzTDAsNjIuOTJ6Ii8+JiN4YTsJCTwvZz4mI3hhOwkJPGcgaWQ9InNoYXBlNTIxNy0xNCIgdHJhbnNmb3JtPSJ0cmFuc2xhdGUoMTgsLTEyLjUxNzUpIj4mI3hhOwkJCTx0aXRsZSBpZD0idGl0bGUxMDc3NjUiPnJlY3QxMDE4NDwvdGl0bGU+JiN4YTsJCQk8cmVjdCBpZD0icmVjdDEwNzc2NyIgeT0iNjQuMjQiIHN0eWxlPSJmaWxsOiNGRkZGRkY7IiB3aWR0aD0iMjQuNzUiIGhlaWdodD0iMyIvPiYjeGE7CQk8L2c+JiN4YTsJCTxnIGlkPSJzaGFwZTUyMTgtMTYiIHRyYW5zZm9ybT0idHJhbnNsYXRlKDQuNjk1MDEsLTEwLjMxMjUpIj4mI3hhOwkJCTx0aXRsZSBpZD0idGl0bGUxMDc3NzAiPnBvbHlnb24xMDE4NjwvdGl0bGU+JiN4YTsJCQk8cGF0aCBpZD0icGF0aDEwNzc3MiIgaW5rc2NhcGU6Y29ubmVjdG9yLWN1cnZhdHVyZT0iMCIgc3R5bGU9ImZpbGw6I0ZGRkZGRjsiIGQ9Ik0wLDYyLjkybDEuNjYtMS4xbDIuMDgsMy4xMWw1Ljc4LTcuODggICAgIGwxLjYxLDEuMTdsLTYuNjIsOS4wMmwtMS42NC0wLjAzTDAsNjIuOTJ6Ii8+JiN4YTsJCTwvZz4mI3hhOwk8L2c+JiN4YTs8L2c+JiN4YTs8L3N2Zz4=;" parent="9ZHAh12ubHKS04gOAZc5-44" vertex="1">
          <mxGeometry x="53" y="50" width="58.18" height="80" as="geometry" />
        </mxCell>
        <mxCell id="9ZHAh12ubHKS04gOAZc5-63" value="EVALUATIONS" style="text;html=1;align=center;verticalAlign=middle;resizable=0;points=[];autosize=1;strokeColor=none;fillColor=none;" parent="9ZHAh12ubHKS04gOAZc5-44" vertex="1">
          <mxGeometry x="27.090000000000032" y="300" width="110" height="30" as="geometry" />
        </mxCell>
        <mxCell id="9ZHAh12ubHKS04gOAZc5-86" style="edgeStyle=orthogonalEdgeStyle;rounded=0;orthogonalLoop=1;jettySize=auto;html=1;entryX=0.387;entryY=0.143;entryDx=0;entryDy=0;entryPerimeter=0;" parent="1" source="9ZHAh12ubHKS04gOAZc5-62" target="9ZHAh12ubHKS04gOAZc5-57" edge="1">
          <mxGeometry relative="1" as="geometry" />
        </mxCell>
        <mxCell id="9ZHAh12ubHKS04gOAZc5-62" value="RESULTS" style="text;html=1;align=center;verticalAlign=middle;resizable=0;points=[];autosize=1;strokeColor=none;fillColor=none;" parent="1" vertex="1">
          <mxGeometry x="670" y="158" width="80" height="30" as="geometry" />
        </mxCell>
        <mxCell id="Y3FegI15y7X9WpJE8XwI-6" style="edgeStyle=orthogonalEdgeStyle;rounded=0;orthogonalLoop=1;jettySize=auto;html=1;entryX=0;entryY=0.75;entryDx=0;entryDy=0;" parent="1" source="Y3FegI15y7X9WpJE8XwI-1" target="9ZHAh12ubHKS04gOAZc5-61" edge="1">
          <mxGeometry relative="1" as="geometry" />
        </mxCell>
        <mxCell id="Y3FegI15y7X9WpJE8XwI-2" value="- HYPER PARAMETER &lt;br&gt;TUNNING&lt;br&gt;- IQR USING Z-SCORE&lt;br&gt;- FEATURE ENGINEERING" style="text;html=1;align=center;verticalAlign=middle;resizable=0;points=[];autosize=1;strokeColor=none;fillColor=none;" parent="1" vertex="1">
          <mxGeometry x="460" y="253" width="170" height="70" as="geometry" />
        </mxCell>
        <mxCell id="9dspUS3hcDLRJ5GcAMsX-2" value="" style="shape=image;verticalLabelPosition=bottom;labelBackgroundColor=#ffffff;verticalAlign=top;aspect=fixed;imageAspect=0;image=data:image/svg+xml,PHN2ZyB4bWxuczpldj0iaHR0cDovL3d3dy53My5vcmcvMjAwMS94bWwtZXZlbnRzIiB4bWxucz0iaHR0cDovL3d3dy53My5vcmcvMjAwMC9zdmciIHhtbG5zOnhsaW5rPSJodHRwOi8vd3d3LnczLm9yZy8xOTk5L3hsaW5rIiB2ZXJzaW9uPSIxLjEiIGlkPSJMYXllcl8xIiB4PSIwcHgiIHk9IjBweCIgdmlld0JveD0iMCAwIDk3LjM0IDExMy45NiIgc3R5bGU9ImVuYWJsZS1iYWNrZ3JvdW5kOm5ldyAwIDAgOTcuMzQgMTEzLjk2OyIgeG1sOnNwYWNlPSJwcmVzZXJ2ZSI+JiN4YTs8Zz4mI3hhOwk8dGl0bGU+UGFnZS0xPC90aXRsZT4mI3hhOwk8ZyBpZD0iZ3JvdXAyNTMtMSIgdHJhbnNmb3JtPSJ0cmFuc2xhdGUoMC4zMDcxNDMsLTAuMjk2NzI2KSI+JiN4YTsJCTx0aXRsZT5WRVRFUjwvdGl0bGU+JiN4YTsJCTxnIGlkPSJzaGFwZTI1NC0yIiB0cmFuc2Zvcm09InRyYW5zbGF0ZSgyLjE0MjU5LC0yLjE1MykiPiYjeGE7CQkJPHRpdGxlPlNoZWV0LjI1NDwvdGl0bGU+JiN4YTsJCQkmI3hhOwkJCQk8cGF0aCBzdHlsZT0iZmlsbDpub25lO3N0cm9rZTojM0Y1NzY1O3N0cm9rZS13aWR0aDo0Ljg5OTU7c3Ryb2tlLWxpbmVjYXA6cm91bmQ7c3Ryb2tlLWxpbmVqb2luOnJvdW5kO3N0cm9rZS1taXRlcmxpbWl0OjM7IiBkPSIgICAgIE0wLDQuOWg5Mi40NHYxMDkuMDZIMFY0LjkiLz4mI3hhOwkJPC9nPiYjeGE7CQk8ZyBpZD0ic2hhcGUyNTUtNSIgdHJhbnNmb3JtPSJ0cmFuc2xhdGUoMTEuMDE5LC04My45NDgpIj4mI3hhOwkJCTx0aXRsZT5TaGVldC4yNTU8L3RpdGxlPiYjeGE7CQkJJiN4YTsJCQkJPHBhdGggc3R5bGU9ImZpbGw6bm9uZTtzdHJva2U6IzNGNTc2NTtzdHJva2Utd2lkdGg6MS44MzczO3N0cm9rZS1saW5lY2FwOnJvdW5kO3N0cm9rZS1saW5lam9pbjpyb3VuZDtzdHJva2UtbWl0ZXJsaW1pdDozOyIgZD0iICAgICBNMCw5Ni44aDc0LjA3djE3LjE2SDBWOTYuOCIvPiYjeGE7CQk8L2c+JiN4YTsJCTxnIGlkPSJzaGFwZTI1Ni04IiB0cmFuc2Zvcm09InRyYW5zbGF0ZSgxMS42MzEyLC02MC42NjU2KSI+JiN4YTsJCQk8dGl0bGU+U2hlZXQuMjU2PC90aXRsZT4mI3hhOwkJCSYjeGE7CQkJCTxwYXRoIHN0eWxlPSJmaWxsOm5vbmU7c3Ryb2tlOiMzRjU3NjU7c3Ryb2tlLXdpZHRoOjEuODM3MztzdHJva2UtbGluZWNhcDpyb3VuZDtzdHJva2UtbGluZWpvaW46cm91bmQ7c3Ryb2tlLW1pdGVybGltaXQ6MzsiIGQ9IiAgICAgTTAsOTYuMTloNzQuMDd2MTcuNzdIMFY5Ni4xOSIvPiYjeGE7CQk8L2c+JiN4YTsJCTxnIGlkPSJzaGFwZTI1Ny0xMSIgdHJhbnNmb3JtPSJ0cmFuc2xhdGUoMTEuNjMxMiwtMzYuNzcwNCkiPiYjeGE7CQkJPHRpdGxlPlNoZWV0LjI1NzwvdGl0bGU+JiN4YTsJCQkmI3hhOwkJCQk8cGF0aCBzdHlsZT0iZmlsbDpub25lO3N0cm9rZTojM0Y1NzY1O3N0cm9rZS13aWR0aDoxLjgzNzM7c3Ryb2tlLWxpbmVjYXA6cm91bmQ7c3Ryb2tlLWxpbmVqb2luOnJvdW5kO3N0cm9rZS1taXRlcmxpbWl0OjM7IiBkPSIgICAgIE0wLDk2LjhoNzQuMDd2MTcuMTZIMFY5Ni44Ii8+JiN4YTsJCTwvZz4mI3hhOwkJPGcgaWQ9InNoYXBlMjU4LTE0IiB0cmFuc2Zvcm09InRyYW5zbGF0ZSgxMS42MzEyLC0xMC40MjQ0KSI+JiN4YTsJCQk8dGl0bGU+U2hlZXQuMjU4PC90aXRsZT4mI3hhOwkJCSYjeGE7CQkJCTxwYXRoIHN0eWxlPSJmaWxsOm5vbmU7c3Ryb2tlOiMzRjU3NjU7c3Ryb2tlLXdpZHRoOjEuODM3MztzdHJva2UtbGluZWNhcDpyb3VuZDtzdHJva2UtbGluZWpvaW46cm91bmQ7c3Ryb2tlLW1pdGVybGltaXQ6MzsiIGQ9IiAgICAgTTAsOTYuMTloNzQuMDd2MTcuNzdIMFY5Ni4xOSIvPiYjeGE7CQk8L2c+JiN4YTsJCTxnIGlkPSJzaGFwZTI1OS0xNyIgdHJhbnNmb3JtPSJ0cmFuc2xhdGUoMzUuMTk5NiwtMTAuNzMwOCkiPiYjeGE7CQkJPHRpdGxlPlNoZWV0LjI1OTwvdGl0bGU+JiN4YTsJCQkmI3hhOwkJCQk8cGF0aCBzdHlsZT0iZmlsbDojM0Y1NzY1O3N0cm9rZTojM0Y1NzY1O3N0cm9rZS13aWR0aDowLjc1O3N0cm9rZS1saW5lY2FwOnJvdW5kO3N0cm9rZS1saW5lam9pbjpyb3VuZDtzdHJva2UtbWl0ZXJsaW1pdDozOyIgZD0iICAgICBNMCwxMDIuMzJoNS44MlYyMy4yOGgxMS42M3Y3OS4wNGg1LjgxbC0xMS42MywxMS42NEwwLDEwMi4zMnoiLz4mI3hhOwkJPC9nPiYjeGE7CQk8ZyBpZD0ic2hhcGUyNjAtMTkiPiYjeGE7CQkJPHRpdGxlPlNoZWV0LjI2MDwvdGl0bGU+JiN4YTsJCQk8cmVjdCB4PSIwIiB5PSIwLjYiIHN0eWxlPSJkaXNwbGF5Om5vbmU7ZmlsbDojM0Y1NzY1OyIgd2lkdGg9Ijk2LjcyIiBoZWlnaHQ9IjExMy4zNiIvPiYjeGE7CQkJJiN4YTsJCQkJPHJlY3QgeD0iMCIgeT0iMC42IiBzdHlsZT0iZmlsbDpub25lO3N0cm9rZTojM0Y1NzY1O3N0cm9rZS13aWR0aDowLjI1O3N0cm9rZS1saW5lY2FwOnNxdWFyZTtzdHJva2UtbWl0ZXJsaW1pdDozOyIgd2lkdGg9Ijk2LjcyIiBoZWlnaHQ9IjExMy4zNiIvPiYjeGE7CQk8L2c+JiN4YTsJPC9nPiYjeGE7PC9nPiYjeGE7PC9zdmc+;" vertex="1" parent="1">
          <mxGeometry x="360" y="50" width="42.54" height="50" as="geometry" />
        </mxCell>
        <mxCell id="9dspUS3hcDLRJ5GcAMsX-5" value="FLATTEN FILE" style="text;html=1;align=center;verticalAlign=middle;resizable=0;points=[];autosize=1;strokeColor=none;fillColor=none;" vertex="1" parent="1">
          <mxGeometry x="331.27" y="100" width="100" height="30" as="geometry" />
        </mxCell>
        <mxCell id="9dspUS3hcDLRJ5GcAMsX-8" style="edgeStyle=orthogonalEdgeStyle;rounded=0;orthogonalLoop=1;jettySize=auto;html=1;entryX=0.224;entryY=0.216;entryDx=0;entryDy=0;entryPerimeter=0;" edge="1" parent="1" source="9dspUS3hcDLRJ5GcAMsX-2" target="9ZHAh12ubHKS04gOAZc5-59">
          <mxGeometry relative="1" as="geometry" />
        </mxCell>
      </root>
    </mxGraphModel>
  </diagram>
</mxfile>
